<svg xmlns="http://www.w3.org/2000/svg" width="54" height="54" viewBox="0 0 54 54"><path fill="#fff" d="M53.836 15.868c-.131-2.874-.588-4.836-1.254-6.554-.691-1.776-1.614-3.282-3.114-4.783-1.503-1.501-3.006-2.424-4.783-3.114C42.968.75 41.005.293 38.132.162 35.253.031 34.333 0 27 0s-8.252.031-11.132.163c-2.874.131-4.837.588-6.554 1.254-1.776.691-3.281 1.614-4.782 3.114-1.501 1.501-2.424 3.007-3.114 4.783-.667 1.717-1.124 3.68-1.255 6.554C.032 18.748 0 19.667 0 27s.032 8.252.163 11.132c.131 2.874.588 4.837 1.255 6.554.689 1.776 1.612 3.281 3.114 4.783 1.502 1.501 3.007 2.424 4.782 3.114 1.717.667 3.68 1.124 6.554 1.255 2.879.131 3.799.163 11.131.163s8.253-.032 11.133-.163c2.873-.131 4.836-.588 6.553-1.255 1.777-.69 3.281-1.613 4.783-3.114 1.5-1.502 2.423-3.007 3.114-4.783.666-1.717 1.124-3.68 1.254-6.554.132-2.88.163-3.799.163-11.132s-.032-8.252-.163-11.132M48.977 37.91c-.12 2.633-.56 4.062-.93 5.014-.49 1.26-1.076 2.159-2.018 3.104-.946.944-1.845 1.53-3.106 2.02-.951.369-2.381.809-5.014.929-2.845.13-3.699.158-10.909.158s-8.063-.028-10.91-.158c-2.633-.12-4.062-.56-5.014-.929-1.26-.49-2.159-1.076-3.104-2.02-.945-.945-1.53-1.844-2.02-3.104-.369-.952-.809-2.381-.929-5.014-.13-2.847-.158-3.701-.158-10.91s.028-8.063.158-10.91c.12-2.633.56-4.062.929-5.014.49-1.26 1.076-2.16 2.02-3.104.945-.945 1.844-1.53 3.104-2.02.952-.369 2.381-.81 5.014-.929 2.847-.13 3.701-.158 10.91-.158s8.063.028 10.909.158c2.633.12 4.064.56 5.014.929 1.261.49 2.16 1.075 3.106 2.02.943.944 1.528 1.844 2.018 3.104.37.951.81 2.381.93 5.014.131 2.847.158 3.701.158 10.91s-.027 8.063-.158 10.91M27 13.135c-7.657 0-13.865 6.208-13.865 13.865S19.343 40.865 27 40.865 40.865 34.657 40.865 27 34.657 13.135 27 13.135M27 36a9 9 0 1 1 .001-18.001A9 9 0 0 1 27 36M41.412 9.347a3.24 3.24 0 1 0 0 6.48 3.24 3.24 0 0 0 0-6.48"/></svg>