<svg xmlns="http://www.w3.org/2000/svg" width="54" height="54" viewBox="0 0 54 54"><path fill="#fff" d="M24.81 53.432a26.42 26.42 0 0 0 16.141-3.909 5.716 5.716 0 0 0 1.003-8.837l-.852-.853c2.155-1.949 2.889-5.279.092-7.024l-3.319-1.99a3.852 3.852 0 0 0-5.605 2.093 1.404 1.404 0 0 1-2.086.906 29.15 29.15 0 0 1-10.023-10.032 1.44 1.44 0 0 1 .816-2.042 3.844 3.844 0 0 0 2.199-5.614c-1.074-1.793-1.662-2.773-2.048-3.291-.163-.775-1.423-1.567-2.287-1.774a3.76 3.76 0 0 0-2.892.426 10.45 10.45 0 0 0-3.893 13.78 39.23 39.23 0 0 0 16.633 16.65 10.47 10.47 0 0 0 11.001-.822l.927.927a3.814 3.814 0 0 1-.667 5.893C15.078 62.891-10.611 30.491 9.564 9.633c20.049-19.268 51.279 3.173 39.434 28.325a.946.946 0 0 0 1.695.841C63.453 11.714 29.804-12.458 8.225 8.296-7.684 24.032 2.516 51.68 24.81 53.432m4.756-13.189a37.35 37.35 0 0 1-15.833-15.849 8.563 8.563 0 0 1 3.203-11.292 1.93 1.93 0 0 1 2.617.663l2.013 3.358a1.94 1.94 0 0 1-1.086 2.793 3.343 3.343 0 0 0-1.931 4.862 31.2 31.2 0 0 0 4.667 5.987 30.9 30.9 0 0 0 5.992 4.674 3.3 3.3 0 0 0 4.875-1.997 1.954 1.954 0 0 1 2.798-1.012l3.355 2.012a1.937 1.937 0 0 1 .635 2.619 8.573 8.573 0 0 1-11.306 3.182Z"/></svg>