<svg xmlns="http://www.w3.org/2000/svg" width="2013" height="3390" data-name="レイヤー_1" viewBox="0 0 2013 3390"><path fill="#d8e1eb" d="M187.869 1824.227a4.08 4.08 0 0 0 2.568-3.786 4.084 4.084 0 0 0-4.084-4.084c-.954 0-1.82.341-2.515.889l-1.755-3.04c1.617-.543 2.79-2.054 2.79-3.855a4.084 4.084 0 0 0-4.084-4.084 4.05 4.05 0 0 0-2.692 1.035l-8.855-15.337-46.47 80.488h92.94l-27.844-48.228Zm17.785-60.237a4.084 4.084 0 1 0 0-8.168 4.084 4.084 0 0 0 0 8.168m-4.923 10.089a4.084 4.084 0 1 0 0-8.168 4.084 4.084 0 0 0 0 8.168m6.006-4.084a4.084 4.084 0 1 0 8.168 0 4.084 4.084 0 0 0-8.168 0m-11.172 14.173a4.084 4.084 0 1 0 0-8.168 4.084 4.084 0 0 0 0 8.168m10.089-8.167a4.084 4.084 0 1 0 0 8.168 4.084 4.084 0 0 0 0-8.168m6.005 4.084a4.084 4.084 0 1 0 8.168 0 4.084 4.084 0 0 0-8.168 0m-20.562 14.172a4.084 4.084 0 1 0 0-8.168 4.084 4.084 0 0 0 0 8.168m6.006-4.083a4.084 4.084 0 1 0 8.168 0 4.084 4.084 0 0 0-8.168 0m14.172-4.084a4.084 4.084 0 1 0 0 8.168 4.084 4.084 0 0 0 0-8.168m10.09 0a4.084 4.084 0 1 0 0 8.168 4.084 4.084 0 0 0 0-8.168m-35.889 18.257a4.084 4.084 0 1 0 0-8.168 4.084 4.084 0 0 0 0 8.168m6.005-4.084a4.084 4.084 0 1 0 8.168 0 4.084 4.084 0 0 0-8.168 0m10.089 0a4.084 4.084 0 1 0 8.168 0 4.084 4.084 0 0 0-8.168 0m10.089 0a4.084 4.084 0 1 0 8.168 0 4.084 4.084 0 0 0-8.168 0m10.09 0a4.084 4.084 0 1 0 8.168 0 4.084 4.084 0 0 0-8.168 0m-34.954 10.089a4.084 4.084 0 1 0 8.168 0 4.084 4.084 0 0 0-8.168 0m18.257 0a4.084 4.084 0 1 0-8.168 0 4.084 4.084 0 0 0 8.168 0m10.089 0a4.084 4.084 0 1 0-8.168 0 4.084 4.084 0 0 0 8.168 0m10.089 0a4.084 4.084 0 1 0-8.168 0 4.084 4.084 0 0 0 8.168 0m1.922 0a4.084 4.084 0 1 0 8.168 0 4.084 4.084 0 0 0-8.168 0m-30.709 14.173a4.084 4.084 0 1 0 0-8.168 4.084 4.084 0 0 0 0 8.168m10.089 0a4.084 4.084 0 1 0 0-8.168 4.084 4.084 0 0 0 0 8.168m10.089 0a4.084 4.084 0 1 0 0-8.168 4.084 4.084 0 0 0 0 8.168m14.173-4.084a4.084 4.084 0 1 0-8.168 0 4.084 4.084 0 0 0 8.168 0m10.089 0a4.084 4.084 0 1 0-8.168 0 4.084 4.084 0 0 0 8.168 0m-26.967-351.372a2.835 2.835 0 1 0 0-5.67 2.835 2.835 0 0 0 0 5.67m0-9.204a2.835 2.835 0 1 0 0-5.67 2.835 2.835 0 0 0 0 5.67m0-9.205a2.835 2.835 0 1 0 0-5.67 2.835 2.835 0 0 0 0 5.67m0-9.204a2.835 2.835 0 1 0 0-5.67 2.835 2.835 0 0 0 0 5.67m8.498 36.818a2.835 2.835 0 1 0 0-5.67 2.835 2.835 0 0 0 0 5.67m0-9.205a2.835 2.835 0 1 0 0-5.67 2.835 2.835 0 0 0 0 5.67m0-9.204a2.835 2.835 0 1 0 0-5.67 2.835 2.835 0 0 0 0 5.67m0-9.205a2.835 2.835 0 1 0 0-5.67 2.835 2.835 0 0 0 0 5.67m0-9.204a2.835 2.835 0 1 0 0-5.67 2.835 2.835 0 0 0 0 5.67m0-9.204a2.835 2.835 0 1 0 0-5.67 2.835 2.835 0 0 0 0 5.67m8.498 55.226a2.835 2.835 0 1 0 0-5.67 2.835 2.835 0 0 0 0 5.67m0-9.204a2.835 2.835 0 1 0 0-5.67 2.835 2.835 0 0 0 0 5.67m0-9.205a2.835 2.835 0 1 0 0-5.67 2.835 2.835 0 0 0 0 5.67m0-9.204a2.835 2.835 0 1 0 0-5.67 2.835 2.835 0 0 0 0 5.67m0-9.205a2.835 2.835 0 1 0 0-5.67 2.835 2.835 0 0 0 0 5.67m0-9.204a2.835 2.835 0 1 0 0-5.67 2.835 2.835 0 0 0 0 5.67m0-9.204a2.835 2.835 0 1 0 0-5.67 2.835 2.835 0 0 0 0 5.67m0-9.205a2.835 2.835 0 1 0 0-5.67 2.835 2.835 0 0 0 0 5.67m8.498 64.431a2.835 2.835 0 1 0 0-5.67 2.835 2.835 0 0 0 0 5.67m0-9.204a2.835 2.835 0 1 0 0-5.67 2.835 2.835 0 0 0 0 5.67m0-9.205a2.835 2.835 0 1 0 0-5.67 2.835 2.835 0 0 0 0 5.67m0-9.204a2.835 2.835 0 1 0 0-5.67 2.835 2.835 0 0 0 0 5.67m0-9.205a2.835 2.835 0 1 0 0-5.67 2.835 2.835 0 0 0 0 5.67m0-9.204a2.835 2.835 0 1 0 0-5.67 2.835 2.835 0 0 0 0 5.67m0-9.204a2.835 2.835 0 1 0 0-5.67 2.835 2.835 0 0 0 0 5.67m0-9.205a2.835 2.835 0 1 0 0-5.67 2.835 2.835 0 0 0 0 5.67m8.498 64.431a2.835 2.835 0 1 0 0-5.67 2.835 2.835 0 0 0 0 5.67m0-9.204a2.835 2.835 0 1 0 0-5.67 2.835 2.835 0 0 0 0 5.67m0-9.205a2.835 2.835 0 1 0 0-5.67 2.835 2.835 0 0 0 0 5.67m0-9.204a2.835 2.835 0 1 0 0-5.67 2.835 2.835 0 0 0 0 5.67m0-9.205a2.835 2.835 0 1 0 0-5.67 2.835 2.835 0 0 0 0 5.67m0-9.204a2.835 2.835 0 1 0 0-5.67 2.835 2.835 0 0 0 0 5.67m0-9.204a2.835 2.835 0 1 0 0-5.67 2.835 2.835 0 0 0 0 5.67m0-9.205a2.835 2.835 0 1 0 0-5.67 2.835 2.835 0 0 0 0 5.67m8.498 64.431a2.835 2.835 0 1 0 0-5.67 2.835 2.835 0 0 0 0 5.67m0-9.204a2.835 2.835 0 1 0 0-5.67 2.835 2.835 0 0 0 0 5.67m0-9.205a2.835 2.835 0 1 0 0-5.67 2.835 2.835 0 0 0 0 5.67m0-9.204a2.835 2.835 0 1 0 0-5.67 2.835 2.835 0 0 0 0 5.67m0-9.205a2.835 2.835 0 1 0 0-5.67 2.835 2.835 0 0 0 0 5.67m0-9.204a2.835 2.835 0 1 0 0-5.67 2.835 2.835 0 0 0 0 5.67m0-9.204a2.835 2.835 0 1 0 0-5.67 2.835 2.835 0 0 0 0 5.67m0-9.205a2.835 2.835 0 1 0 0-5.67 2.835 2.835 0 0 0 0 5.67m8.498 64.431a2.835 2.835 0 1 0 0-5.67 2.835 2.835 0 0 0 0 5.67m0-9.204a2.835 2.835 0 1 0 0-5.67 2.835 2.835 0 0 0 0 5.67m0-9.205a2.835 2.835 0 1 0 0-5.67 2.835 2.835 0 0 0 0 5.67m0-9.204a2.835 2.835 0 1 0 0-5.67 2.835 2.835 0 0 0 0 5.67m0-9.205a2.835 2.835 0 1 0 0-5.67 2.835 2.835 0 0 0 0 5.67m0-9.204a2.835 2.835 0 1 0 0-5.67 2.835 2.835 0 0 0 0 5.67m0-9.204a2.835 2.835 0 1 0 0-5.67 2.835 2.835 0 0 0 0 5.67m-2.835-12.04a2.835 2.835 0 0 0 2.835 2.835c.13 0 .255-.021.38-.038l7.431 12.871a2.829 2.829 0 0 0 .687 5.576 2.82 2.82 0 0 0 2.033-.865l3.372 5.84h.639a2.8 2.8 0 0 0-.381 1.395 2.835 2.835 0 1 0 5.67 0 2.8 2.8 0 0 0-.381-1.395h34.891l20.219-35.02-20.219-35.02h-40.438l-20.219 35.02 4.084 7.073a2.8 2.8 0 0 0-.603 1.728m11.332 58.062a2.835 2.835 0 1 0 0-5.67 2.835 2.835 0 0 0 0 5.67m0-9.205a2.835 2.835 0 1 0 0-5.67 2.835 2.835 0 0 0 0 5.67m0-9.204a2.835 2.835 0 1 0 0-5.67 2.835 2.835 0 0 0 0 5.67m0-9.205a2.835 2.835 0 1 0 0-5.67 2.835 2.835 0 0 0 0 5.67m8.498 18.409a2.835 2.835 0 1 0 0-5.67 2.835 2.835 0 0 0 0 5.67m0-9.204a2.835 2.835 0 1 0 0-5.67 2.835 2.835 0 0 0 0 5.67m1132.06-220.111v241.411l193.409-380.243zm428.338-600.704-234.929 461.872 405.633-291.169zM193.409 3009.654l405.633-291.169-170.704-170.703zM0 3389.897l193.409-380.243L0 3148.485zm225.797-1088.653a3.06 3.06 0 1 0 0 6.122 3.06 3.06 0 0 0 0-6.122m9.214 0a3.06 3.06 0 1 0 0 6.122 3.06 3.06 0 0 0 0-6.122m9.215 6.121a3.06 3.06 0 1 0 0-6.122 3.06 3.06 0 0 0 0 6.122m9.214 0a3.06 3.06 0 1 0 0-6.122 3.06 3.06 0 0 0 0 6.122m9.214 0a3.06 3.06 0 1 0 0-6.122 3.06 3.06 0 0 0 0 6.122m9.215 0a3.06 3.06 0 1 0 0-6.122 3.06 3.06 0 0 0 0 6.122m9.214 0a3.06 3.06 0 1 0 0-6.122 3.06 3.06 0 0 0 0 6.122m9.214 0a3.06 3.06 0 1 0 0-6.122 3.06 3.06 0 0 0 0 6.122m-64.5 1.054a3.061 3.061 0 1 0 0 6.122 3.061 3.061 0 0 0 0-6.122m9.214 0a3.061 3.061 0 1 0 0 6.122 3.061 3.061 0 0 0 0-6.122m9.215 6.121a3.061 3.061 0 1 0 0-6.122 3.061 3.061 0 0 0 0 6.122m9.214 0a3.061 3.061 0 1 0 0-6.122 3.061 3.061 0 0 0 0 6.122m9.214 0a3.061 3.061 0 1 0 0-6.122 3.061 3.061 0 0 0 0 6.122m9.215 0a3.061 3.061 0 1 0 0-6.122 3.061 3.061 0 0 0 0 6.122m9.214 0a3.061 3.061 0 1 0 0-6.122 3.061 3.061 0 0 0 0 6.122m9.214 0a3.061 3.061 0 1 0 0-6.122 3.061 3.061 0 0 0 0 6.122m-64.5 1.054a3.06 3.06 0 1 0 0 6.122 3.06 3.06 0 0 0 0-6.122m9.214 0a3.06 3.06 0 1 0 0 6.122 3.06 3.06 0 0 0 0-6.122m9.215 6.121a3.061 3.061 0 1 0 0-6.122 3.061 3.061 0 0 0 0 6.122m9.214 0a3.061 3.061 0 1 0 0-6.122 3.061 3.061 0 0 0 0 6.122m9.214 0a3.061 3.061 0 1 0 0-6.122 3.061 3.061 0 0 0 0 6.122m9.215 0a3.061 3.061 0 1 0 0-6.122 3.061 3.061 0 0 0 0 6.122m9.214 0a3.061 3.061 0 1 0 0-6.122 3.061 3.061 0 0 0 0 6.122m9.214 0a3.061 3.061 0 1 0 0-6.122 3.061 3.061 0 0 0 0 6.122m-64.5 1.054a3.061 3.061 0 1 0 0 6.122 3.061 3.061 0 0 0 0-6.122m9.214 0a3.061 3.061 0 1 0 0 6.122 3.061 3.061 0 0 0 0-6.122m9.215 6.121a3.06 3.06 0 1 0 0-6.122 3.06 3.06 0 0 0 0 6.122m9.214 0a3.06 3.06 0 1 0 0-6.122 3.06 3.06 0 0 0 0 6.122m9.214 0a3.06 3.06 0 1 0 0-6.122 3.06 3.06 0 0 0 0 6.122m9.215 0a3.06 3.06 0 1 0 0-6.122 3.06 3.06 0 0 0 0 6.122m9.214 0a3.06 3.06 0 1 0 0-6.122 3.06 3.06 0 0 0 0 6.122m9.214 0a3.06 3.06 0 1 0 0-6.122 3.06 3.06 0 0 0 0 6.122m-64.5 1.054a3.06 3.06 0 1 0 0 6.122 3.06 3.06 0 0 0 0-6.122m9.214 0a3.06 3.06 0 1 0 0 6.122 3.06 3.06 0 0 0 0-6.122m9.215 6.121a3.061 3.061 0 1 0 0-6.122 3.061 3.061 0 0 0 0 6.122m9.214 0a3.061 3.061 0 1 0 0-6.122 3.061 3.061 0 0 0 0 6.122m9.214 0a3.061 3.061 0 1 0 0-6.122 3.061 3.061 0 0 0 0 6.122m9.215 0a3.061 3.061 0 1 0 0-6.122 3.061 3.061 0 0 0 0 6.122m9.214 0a3.061 3.061 0 1 0 0-6.122 3.061 3.061 0 0 0 0 6.122m9.214 0a3.061 3.061 0 1 0 0-6.122 3.061 3.061 0 0 0 0 6.122m19.736 13.239H240.13v31.774h69.903zm0-90.027H240.13v31.774h69.903zm1199.717 925.878a4.084 4.084 0 1 0 0 8.168 4.084 4.084 0 0 0 0-8.168m-9.006 14.173a4.084 4.084 0 1 0 8.168 0 4.084 4.084 0 0 0-8.168 0m14.173-4.084a4.084 4.084 0 1 0 0 8.168 4.084 4.084 0 0 0 0-8.168m-19.339 14.173a4.084 4.084 0 1 0 8.168 0 4.084 4.084 0 0 0-8.168 0m18.256 0a4.084 4.084 0 1 0-8.168 0 4.084 4.084 0 0 0 8.168 0m10.089 0a4.084 4.084 0 1 0-8.168 0 4.084 4.084 0 0 0 8.168 0m-32.813 10.089a4.084 4.084 0 1 0 8.168 0 4.084 4.084 0 0 0-8.168 0m18.256 0a4.084 4.084 0 1 0-8.168 0 4.084 4.084 0 0 0 8.168 0m10.089 0a4.084 4.084 0 1 0-8.168 0 4.084 4.084 0 0 0 8.168 0m10.09 0a4.084 4.084 0 1 0-8.168 0 4.084 4.084 0 0 0 8.168 0m-39.973 14.173a4.084 4.084 0 1 0 0-8.168 4.084 4.084 0 0 0 0 8.168m6.006-4.084a4.084 4.084 0 1 0 8.168 0 4.084 4.084 0 0 0-8.168 0m14.172 4.084a4.084 4.084 0 1 0 0-8.168 4.084 4.084 0 0 0 0 8.168m14.173-4.084a4.084 4.084 0 1 0-8.168 0 4.084 4.084 0 0 0 8.168 0m6.006 4.084a4.084 4.084 0 1 0 0-8.168 4.084 4.084 0 0 0 0 8.168m-34.954 10.089a4.084 4.084 0 1 0 0-8.168 4.084 4.084 0 0 0 0 8.168m14.173-4.083a4.084 4.084 0 1 0-8.168 0 4.084 4.084 0 0 0 8.168 0m10.089 0a4.084 4.084 0 1 0-8.168 0 4.084 4.084 0 0 0 8.168 0m10.09 0a4.084 4.084 0 1 0-8.168 0 4.084 4.084 0 0 0 8.168 0m10.089 0a4.084 4.084 0 1 0-8.168 0 4.084 4.084 0 0 0 8.168 0m-44.882 10.089a4.084 4.084 0 0 0-4.084-4.084c-.954 0-1.82.341-2.515.889l-1.755-3.04c1.617-.543 2.79-2.054 2.79-3.854a4.084 4.084 0 0 0-4.084-4.084 4.05 4.05 0 0 0-2.692 1.034l-8.855-15.336-46.47 80.488h92.94l-27.844-48.228a4.08 4.08 0 0 0 2.568-3.786Zm6.005 4.083a4.084 4.084 0 1 0 0-8.168 4.084 4.084 0 0 0 0 8.168m10.089 0a4.084 4.084 0 1 0 0-8.168 4.084 4.084 0 0 0 0 8.168m10.089-8.167a4.084 4.084 0 1 0 0 8.168 4.084 4.084 0 0 0 0-8.168m10.09 0a4.084 4.084 0 1 0 0 8.168 4.084 4.084 0 0 0 0-8.168m10.089 0a4.084 4.084 0 1 0 0 8.168 4.084 4.084 0 0 0 0-8.168m17.973-352.958a2.835 2.835 0 1 0 0 5.67 2.835 2.835 0 0 0 0-5.67m0-9.204a2.835 2.835 0 1 0 0 5.67 2.835 2.835 0 0 0 0-5.67m0-9.204a2.835 2.835 0 1 0 0 5.67 2.835 2.835 0 0 0 0-5.67m0-9.205a2.835 2.835 0 1 0 0 5.67 2.835 2.835 0 0 0 0-5.67m8.498 36.818a2.835 2.835 0 1 0 0 5.67 2.835 2.835 0 0 0 0-5.67m0-9.205a2.835 2.835 0 1 0 0 5.67 2.835 2.835 0 0 0 0-5.67m0-9.204a2.835 2.835 0 1 0 0 5.67 2.835 2.835 0 0 0 0-5.67m0-9.204a2.835 2.835 0 1 0 0 5.67 2.835 2.835 0 0 0 0-5.67m0-9.205a2.835 2.835 0 1 0 0 5.67 2.835 2.835 0 0 0 0-5.67m0-9.204a2.835 2.835 0 1 0 0 5.67 2.835 2.835 0 0 0 0-5.67m8.498 55.226a2.835 2.835 0 1 0 0 5.67 2.835 2.835 0 0 0 0-5.67m0-9.204a2.835 2.835 0 1 0 0 5.67 2.835 2.835 0 0 0 0-5.67m0-9.205a2.835 2.835 0 1 0 0 5.67 2.835 2.835 0 0 0 0-5.67m0-9.204a2.835 2.835 0 1 0 0 5.67 2.835 2.835 0 0 0 0-5.67m0-9.204a2.835 2.835 0 1 0 0 5.67 2.835 2.835 0 0 0 0-5.67m0-9.205a2.835 2.835 0 1 0 0 5.67 2.835 2.835 0 0 0 0-5.67m0-9.204a2.835 2.835 0 1 0 0 5.67 2.835 2.835 0 0 0 0-5.67m0-9.205a2.835 2.835 0 1 0 0 5.67 2.835 2.835 0 0 0 0-5.67m8.497 64.431a2.835 2.835 0 1 0 0 5.67 2.835 2.835 0 0 0 0-5.67m0-9.204a2.835 2.835 0 1 0 0 5.67 2.835 2.835 0 0 0 0-5.67m0-9.205a2.835 2.835 0 1 0 0 5.67 2.835 2.835 0 0 0 0-5.67m0-9.204a2.835 2.835 0 1 0 0 5.67 2.835 2.835 0 0 0 0-5.67m0-9.204a2.835 2.835 0 1 0 0 5.67 2.835 2.835 0 0 0 0-5.67m0-9.205a2.835 2.835 0 1 0 0 5.67 2.835 2.835 0 0 0 0-5.67m0-9.204a2.835 2.835 0 1 0 0 5.67 2.835 2.835 0 0 0 0-5.67m0-9.205a2.835 2.835 0 1 0 0 5.67 2.835 2.835 0 0 0 0-5.67m8.498 64.431a2.835 2.835 0 1 0 0 5.67 2.835 2.835 0 0 0 0-5.67m0-9.204a2.835 2.835 0 1 0 0 5.67 2.835 2.835 0 0 0 0-5.67m0-9.205a2.835 2.835 0 1 0 0 5.67 2.835 2.835 0 0 0 0-5.67m0-9.204a2.835 2.835 0 1 0 0 5.67 2.835 2.835 0 0 0 0-5.67m0-9.204a2.835 2.835 0 1 0 0 5.67 2.835 2.835 0 0 0 0-5.67m0-9.205a2.835 2.835 0 1 0 0 5.67 2.835 2.835 0 0 0 0-5.67m0-9.204a2.835 2.835 0 1 0 0 5.67 2.835 2.835 0 0 0 0-5.67m0-9.205a2.835 2.835 0 1 0 0 5.67 2.835 2.835 0 0 0 0-5.67m8.498 64.431a2.835 2.835 0 1 0 0 5.67 2.835 2.835 0 0 0 0-5.67m0-9.204a2.835 2.835 0 1 0 0 5.67 2.835 2.835 0 0 0 0-5.67m0-9.205a2.835 2.835 0 1 0 0 5.67 2.835 2.835 0 0 0 0-5.67m0-9.204a2.835 2.835 0 1 0 0 5.67 2.835 2.835 0 0 0 0-5.67m0-9.204a2.835 2.835 0 1 0 0 5.67 2.835 2.835 0 0 0 0-5.67m0-9.205a2.835 2.835 0 1 0 0 5.67 2.835 2.835 0 0 0 0-5.67m0-9.204a2.835 2.835 0 1 0 0 5.67 2.835 2.835 0 0 0 0-5.67m0-9.205a2.835 2.835 0 1 0 0 5.67 2.835 2.835 0 0 0 0-5.67m8.498 64.431a2.835 2.835 0 1 0 0 5.67 2.835 2.835 0 0 0 0-5.67m0-9.204a2.835 2.835 0 1 0 0 5.67 2.835 2.835 0 0 0 0-5.67m0-9.205a2.835 2.835 0 1 0 0 5.67 2.835 2.835 0 0 0 0-5.67m0-9.204a2.835 2.835 0 1 0 0 5.67 2.835 2.835 0 0 0 0-5.67m0-9.204a2.835 2.835 0 1 0 0 5.67 2.835 2.835 0 0 0 0-5.67m0-9.205a2.835 2.835 0 1 0 0 5.67 2.835 2.835 0 0 0 0-5.67m0-9.204a2.835 2.835 0 1 0 0 5.67 2.835 2.835 0 0 0 0-5.67m8.498 46.022a2.835 2.835 0 1 0 0 5.67 2.835 2.835 0 0 0 0-5.67m0-9.205a2.835 2.835 0 1 0 0 5.67 2.835 2.835 0 0 0 0-5.67m0-9.204a2.835 2.835 0 1 0 0 5.67 2.835 2.835 0 0 0 0-5.67m0-9.204a2.835 2.835 0 1 0 0 5.67 2.835 2.835 0 0 0 0-5.67m8.498 18.408a2.835 2.835 0 1 0 0 5.67 2.835 2.835 0 0 0 0-5.67m0-9.204a2.835 2.835 0 1 0 0 5.67 2.835 2.835 0 0 0 0-5.67m-3.093-77.805-20.219 35.02 4.084 7.073a2.8 2.8 0 0 0-.603 1.728 2.835 2.835 0 0 0 2.835 2.835c.13 0 .255-.021.38-.038l7.431 12.871a2.829 2.829 0 0 0 .687 5.575 2.82 2.82 0 0 0 2.033-.865l3.372 5.84h.639a2.8 2.8 0 0 0-.381 1.395 2.835 2.835 0 1 0 5.67 0 2.8 2.8 0 0 0-.381-1.395h34.891l20.219-35.02-20.219-35.02h-40.437Zm-148.161-564.339a3.06 3.06 0 1 0 0 6.122 3.06 3.06 0 0 0 0-6.122m9.215 6.121a3.061 3.061 0 1 0 0-6.122 3.061 3.061 0 0 0 0 6.122m9.214 0a3.061 3.061 0 1 0 0-6.122 3.061 3.061 0 0 0 0 6.122m9.214 0a3.061 3.061 0 1 0 0-6.122 3.061 3.061 0 0 0 0 6.122m9.214 0a3.061 3.061 0 1 0 0-6.122 3.061 3.061 0 0 0 0 6.122m9.215 0a3.061 3.061 0 1 0 0-6.122 3.061 3.061 0 0 0 0 6.122m9.214 0a3.061 3.061 0 1 0 0-6.122 3.061 3.061 0 0 0 0 6.122m9.214 0a3.061 3.061 0 1 0 0-6.122 3.061 3.061 0 0 0 0 6.122m-64.5 1.053a3.061 3.061 0 1 0 0 6.122 3.061 3.061 0 0 0 0-6.122m9.215 6.121a3.06 3.06 0 1 0 0-6.122 3.06 3.06 0 0 0 0 6.122m9.214 0a3.06 3.06 0 1 0 0-6.122 3.06 3.06 0 0 0 0 6.122m9.214 0a3.06 3.06 0 1 0 0-6.122 3.06 3.06 0 0 0 0 6.122m9.214 0a3.06 3.06 0 1 0 0-6.122 3.06 3.06 0 0 0 0 6.122m9.215 0a3.06 3.06 0 1 0 0-6.122 3.06 3.06 0 0 0 0 6.122m9.214 0a3.06 3.06 0 1 0 0-6.122 3.06 3.06 0 0 0 0 6.122m9.214 0a3.06 3.06 0 1 0 0-6.122 3.06 3.06 0 0 0 0 6.122m-64.5 1.054a3.06 3.06 0 1 0 0 6.122 3.06 3.06 0 0 0 0-6.122m9.215 6.121a3.061 3.061 0 1 0 0-6.122 3.061 3.061 0 0 0 0 6.122m9.214 0a3.061 3.061 0 1 0 0-6.122 3.061 3.061 0 0 0 0 6.122m9.214 0a3.061 3.061 0 1 0 0-6.122 3.061 3.061 0 0 0 0 6.122m9.214 0a3.061 3.061 0 1 0 0-6.122 3.061 3.061 0 0 0 0 6.122m9.215 0a3.061 3.061 0 1 0 0-6.122 3.061 3.061 0 0 0 0 6.122m9.214 0a3.061 3.061 0 1 0 0-6.122 3.061 3.061 0 0 0 0 6.122m9.214 0a3.061 3.061 0 1 0 0-6.122 3.061 3.061 0 0 0 0 6.122m-64.5 1.054a3.061 3.061 0 1 0 0 6.122 3.061 3.061 0 0 0 0-6.122m9.215 6.121a3.06 3.06 0 1 0 0-6.122 3.06 3.06 0 0 0 0 6.122m9.214 0a3.06 3.06 0 1 0 0-6.122 3.06 3.06 0 0 0 0 6.122m9.214 0a3.06 3.06 0 1 0 0-6.122 3.06 3.06 0 0 0 0 6.122m9.214 0a3.06 3.06 0 1 0 0-6.122 3.06 3.06 0 0 0 0 6.122m9.215 0a3.06 3.06 0 1 0 0-6.122 3.06 3.06 0 0 0 0 6.122m9.214 0a3.06 3.06 0 1 0 0-6.122 3.06 3.06 0 0 0 0 6.122m9.214 0a3.06 3.06 0 1 0 0-6.122 3.06 3.06 0 0 0 0 6.122m-64.5 1.054a3.06 3.06 0 1 0 0 6.122 3.06 3.06 0 0 0 0-6.122m9.215 6.121a3.061 3.061 0 1 0 0-6.122 3.061 3.061 0 0 0 0 6.122m9.214 0a3.061 3.061 0 1 0 0-6.122 3.061 3.061 0 0 0 0 6.122m9.214 0a3.061 3.061 0 1 0 0-6.122 3.061 3.061 0 0 0 0 6.122m9.214 0a3.061 3.061 0 1 0 0-6.122 3.061 3.061 0 0 0 0 6.122m9.215 0a3.061 3.061 0 1 0 0-6.122 3.061 3.061 0 0 0 0 6.122m9.214 0a3.061 3.061 0 1 0 0-6.122 3.061 3.061 0 0 0 0 6.122m9.214 0a3.061 3.061 0 1 0 0-6.122 3.061 3.061 0 0 0 0 6.122m19.736 13.239h-69.903v31.774h69.903zm0-90.027h-69.903v31.774h69.903z"/></svg>