<svg xmlns="http://www.w3.org/2000/svg" width="655" height="1216" data-name="レイヤー_1" viewBox="0 0 655 1216"><path fill="#bed3e0" d="M607.632 196.226a2.633 2.633 0 0 0-.978-5.078c-.615 0-1.174.22-1.623.573l-1.132-1.961a2.63 2.63 0 0 0 1.8-2.487 2.635 2.635 0 0 0-2.635-2.635c-.669 0-1.272.257-1.737.668l-5.713-9.896-29.985 51.935h59.969zm11.476-38.868a2.635 2.635 0 1 0 0-5.27 2.635 2.635 0 0 0 0 5.27m-3.176 6.51a2.635 2.635 0 1 0 0-5.27 2.635 2.635 0 0 0 0 5.27m3.875-2.635a2.635 2.635 0 1 0 5.27 0 2.635 2.635 0 0 0-5.27 0m-7.209 9.145a2.635 2.635 0 1 0 0-5.27 2.635 2.635 0 0 0 0 5.27m6.51-5.27a2.635 2.635 0 1 0 0 5.27 2.635 2.635 0 0 0 0-5.27m3.875 2.635a2.635 2.635 0 1 0 5.27 0 2.635 2.635 0 0 0-5.27 0m-13.268 9.145a2.635 2.635 0 1 0 0-5.27 2.635 2.635 0 0 0 0 5.27m3.875-2.635a2.635 2.635 0 1 0 5.27 0 2.635 2.635 0 0 0-5.27 0m11.78 0a2.635 2.635 0 1 0-5.27 0 2.635 2.635 0 0 0 5.27 0m1.24 0a2.635 2.635 0 1 0 5.27 0 2.635 2.635 0 0 0-5.27 0m-20.522 9.145a2.635 2.635 0 1 0 0-5.27 2.635 2.635 0 0 0 0 5.27m3.875-2.635a2.635 2.635 0 1 0 5.27 0 2.635 2.635 0 0 0-5.27 0m6.51 0a2.635 2.635 0 1 0 5.27 0 2.635 2.635 0 0 0-5.27 0m11.78 0a2.635 2.635 0 1 0-5.27 0 2.635 2.635 0 0 0 5.27 0m1.24 0a2.635 2.635 0 1 0 5.27 0 2.635 2.635 0 0 0-5.27 0m-22.554 6.51a2.635 2.635 0 1 0 5.27 0 2.635 2.635 0 0 0-5.27 0m11.78 0a2.635 2.635 0 1 0-5.27 0 2.635 2.635 0 0 0 5.27 0m6.51 0a2.635 2.635 0 1 0-5.27 0 2.635 2.635 0 0 0 5.27 0m6.51 0a2.635 2.635 0 1 0-5.27 0 2.635 2.635 0 0 0 5.27 0m1.24 0a2.635 2.635 0 1 0 5.27 0 2.635 2.635 0 0 0-5.27 0m-19.815 9.145a2.635 2.635 0 1 0 0-5.27 2.635 2.635 0 0 0 0 5.27m6.51 0a2.635 2.635 0 1 0 0-5.27 2.635 2.635 0 0 0 0 5.27m6.51-5.27a2.635 2.635 0 1 0 0 5.27 2.635 2.635 0 0 0 0-5.27m6.51 0a2.635 2.635 0 1 0 0 5.27 2.635 2.635 0 0 0 0-5.27m9.145 2.635a2.635 2.635 0 1 0-5.27 0 2.635 2.635 0 0 0 5.27 0M1.829 391.75a1.83 1.83 0 1 0 0 3.658 1.83 1.83 0 0 0 0-3.658m0-5.94a1.83 1.83 0 1 0 0 3.658 1.83 1.83 0 0 0 0-3.658m0-5.939a1.83 1.83 0 1 0 0 3.658 1.83 1.83 0 0 0 0-3.658m0-5.939a1.83 1.83 0 1 0 0 3.658 1.83 1.83 0 0 0 0-3.658m5.483 23.757a1.83 1.83 0 1 0 0 3.658 1.83 1.83 0 0 0 0-3.658m0-5.939a1.83 1.83 0 1 0 0 3.658 1.83 1.83 0 0 0 0-3.658m0-5.94a1.83 1.83 0 1 0 0 3.658 1.83 1.83 0 0 0 0-3.658m0-5.939a1.83 1.83 0 1 0 0 3.658 1.83 1.83 0 0 0 0-3.658m0-5.939a1.83 1.83 0 1 0 0 3.658 1.83 1.83 0 0 0 0-3.658m0-5.939a1.83 1.83 0 1 0 0 3.658 1.83 1.83 0 0 0 0-3.658m7.312 37.464a1.83 1.83 0 1 0-3.658 0 1.83 1.83 0 0 0 3.658 0m-1.829-4.11a1.83 1.83 0 1 0 0-3.658 1.83 1.83 0 0 0 0 3.658m0-5.939a1.83 1.83 0 1 0 0-3.658 1.83 1.83 0 0 0 0 3.658m0-5.94a1.83 1.83 0 1 0 0-3.658 1.83 1.83 0 0 0 0 3.658m0-5.939a1.83 1.83 0 1 0 0-3.658 1.83 1.83 0 0 0 0 3.658m0-5.939a1.83 1.83 0 1 0 0-3.658 1.83 1.83 0 0 0 0 3.658m0-5.939a1.83 1.83 0 1 0 0-3.658 1.83 1.83 0 0 0 0 3.658m0-5.939a1.83 1.83 0 1 0 0-3.658 1.83 1.83 0 0 0 0 3.658m5.484 41.574a1.83 1.83 0 1 0 0-3.658 1.83 1.83 0 0 0 0 3.658m0-5.939a1.83 1.83 0 1 0 0-3.658 1.83 1.83 0 0 0 0 3.658m0-5.939a1.83 1.83 0 1 0 0-3.658 1.83 1.83 0 0 0 0 3.658m0-5.94a1.83 1.83 0 1 0 0-3.658 1.83 1.83 0 0 0 0 3.658m0-5.939a1.83 1.83 0 1 0 0-3.658 1.83 1.83 0 0 0 0 3.658m0-5.939a1.83 1.83 0 1 0 0-3.658 1.83 1.83 0 0 0 0 3.658m0-5.939a1.83 1.83 0 1 0 0-3.658 1.83 1.83 0 0 0 0 3.658m0-5.939a1.83 1.83 0 1 0 0-3.658 1.83 1.83 0 0 0 0 3.658m5.483 41.574a1.83 1.83 0 1 0 0-3.658 1.83 1.83 0 0 0 0 3.658m0-5.939a1.83 1.83 0 1 0 0-3.658 1.83 1.83 0 0 0 0 3.658m0-5.939a1.83 1.83 0 1 0 0-3.658 1.83 1.83 0 0 0 0 3.658m0-5.94a1.83 1.83 0 1 0 0-3.658 1.83 1.83 0 0 0 0 3.658m0-5.939a1.83 1.83 0 1 0 0-3.658 1.83 1.83 0 0 0 0 3.658m0-5.939a1.83 1.83 0 1 0 0-3.658 1.83 1.83 0 0 0 0 3.658m0-5.939a1.83 1.83 0 1 0 0-3.658 1.83 1.83 0 0 0 0 3.658m0-5.939a1.83 1.83 0 1 0 0-3.658 1.83 1.83 0 0 0 0 3.658m5.483 41.574a1.83 1.83 0 1 0 0-3.658 1.83 1.83 0 0 0 0 3.658m0-5.939a1.83 1.83 0 1 0 0-3.658 1.83 1.83 0 0 0 0 3.658m0-5.939a1.83 1.83 0 1 0 0-3.658 1.83 1.83 0 0 0 0 3.658m0-5.94a1.83 1.83 0 1 0 0-3.658 1.83 1.83 0 0 0 0 3.658m0-5.939a1.83 1.83 0 1 0 0-3.658 1.83 1.83 0 0 0 0 3.658m0-5.939a1.83 1.83 0 1 0 0-3.658 1.83 1.83 0 0 0 0 3.658m0-5.939a1.83 1.83 0 1 0 0-3.658 1.83 1.83 0 0 0 0 3.658m0-5.939a1.83 1.83 0 1 0 0-3.658 1.83 1.83 0 0 0 0 3.658m5.483 41.574a1.83 1.83 0 1 0 0-3.658 1.83 1.83 0 0 0 0 3.658m0-5.939a1.83 1.83 0 1 0 0-3.658 1.83 1.83 0 0 0 0 3.658m0-5.939a1.83 1.83 0 1 0 0-3.658 1.83 1.83 0 0 0 0 3.658m0-5.94a1.83 1.83 0 1 0 0-3.658 1.83 1.83 0 0 0 0 3.658m0-5.939a1.83 1.83 0 1 0 0-3.658 1.83 1.83 0 0 0 0 3.658m0-5.939a1.83 1.83 0 1 0 0-3.658 1.83 1.83 0 0 0 0 3.658m0-5.939a1.83 1.83 0 1 0 0-3.658 1.83 1.83 0 0 0 0 3.658m-1.829-7.768a1.83 1.83 0 0 0 1.829 1.829c.084 0 .164-.014.245-.025l4.795 8.305a1.825 1.825 0 1 0 1.755 3.04l2.176 3.768h.412a1.8 1.8 0 0 0-.246.9 1.83 1.83 0 0 0 3.658 0 1.8 1.8 0 0 0-.246-.9H69.79l13.046-22.596-13.046-22.596H43.698l-13.046 22.596 2.635 4.564a1.8 1.8 0 0 0-.389 1.115Zm7.312 37.464a1.83 1.83 0 1 0 0-3.658 1.83 1.83 0 0 0 0 3.658m0-5.939a1.83 1.83 0 1 0 0-3.658 1.83 1.83 0 0 0 0 3.658m0-5.94a1.83 1.83 0 1 0 0-3.658 1.83 1.83 0 0 0 0 3.658m0-5.939a1.83 1.83 0 1 0 0-3.658 1.83 1.83 0 0 0 0 3.658m5.484 11.879a1.83 1.83 0 1 0 0-3.658 1.83 1.83 0 0 0 0 3.658m0-5.94a1.83 1.83 0 1 0 0-3.658 1.83 1.83 0 0 0 0 3.658m523.239 122.965a1.975 1.975 0 1 0 0 3.95 1.975 1.975 0 0 0 0-3.95m5.945 0a1.975 1.975 0 1 0 0 3.95 1.975 1.975 0 0 0 0-3.95m5.946 3.95a1.975 1.975 0 1 0 0-3.95 1.975 1.975 0 0 0 0 3.95m5.945 0a1.975 1.975 0 1 0 0-3.95 1.975 1.975 0 0 0 0 3.95m5.946 0a1.975 1.975 0 1 0 0-3.95 1.975 1.975 0 0 0 0 3.95m5.945 0a1.975 1.975 0 1 0 0-3.95 1.975 1.975 0 0 0 0 3.95m5.946 0a1.975 1.975 0 1 0 0-3.95 1.975 1.975 0 0 0 0 3.95m5.945 0a1.975 1.975 0 1 0 0-3.95 1.975 1.975 0 0 0 0 3.95m-41.618.68a1.975 1.975 0 1 0 0 3.95 1.975 1.975 0 0 0 0-3.95m5.945 0a1.975 1.975 0 1 0 0 3.95 1.975 1.975 0 0 0 0-3.95m5.946 3.949a1.975 1.975 0 1 0 0-3.95 1.975 1.975 0 0 0 0 3.95m5.945 0a1.975 1.975 0 1 0 0-3.95 1.975 1.975 0 0 0 0 3.95m5.946 0a1.975 1.975 0 1 0 0-3.95 1.975 1.975 0 0 0 0 3.95m5.945 0a1.975 1.975 0 1 0 0-3.95 1.975 1.975 0 0 0 0 3.95m5.946 0a1.975 1.975 0 1 0 0-3.95 1.975 1.975 0 0 0 0 3.95m5.945 0a1.975 1.975 0 1 0 0-3.95 1.975 1.975 0 0 0 0 3.95m-41.618.68a1.975 1.975 0 1 0 0 3.95 1.975 1.975 0 0 0 0-3.95m5.945 0a1.975 1.975 0 1 0 0 3.95 1.975 1.975 0 0 0 0-3.95m5.946 3.95a1.975 1.975 0 1 0 0-3.95 1.975 1.975 0 0 0 0 3.95m5.945 0a1.975 1.975 0 1 0 0-3.95 1.975 1.975 0 0 0 0 3.95m5.946 0a1.975 1.975 0 1 0 0-3.95 1.975 1.975 0 0 0 0 3.95m5.945 0a1.975 1.975 0 1 0 0-3.95 1.975 1.975 0 0 0 0 3.95m5.946 0a1.975 1.975 0 1 0 0-3.95 1.975 1.975 0 0 0 0 3.95m5.945 0a1.975 1.975 0 1 0 0-3.95 1.975 1.975 0 0 0 0 3.95m-41.618.68a1.975 1.975 0 1 0 0 3.95 1.975 1.975 0 0 0 0-3.95m5.945 0a1.975 1.975 0 1 0 0 3.95 1.975 1.975 0 0 0 0-3.95m5.946 3.949a1.975 1.975 0 1 0 0-3.95 1.975 1.975 0 0 0 0 3.95m5.945 0a1.975 1.975 0 1 0 0-3.95 1.975 1.975 0 0 0 0 3.95m5.946 0a1.975 1.975 0 1 0 0-3.95 1.975 1.975 0 0 0 0 3.95m5.945 0a1.975 1.975 0 1 0 0-3.95 1.975 1.975 0 0 0 0 3.95m5.946 0a1.975 1.975 0 1 0 0-3.95 1.975 1.975 0 0 0 0 3.95m5.945 0a1.975 1.975 0 1 0 0-3.95 1.975 1.975 0 0 0 0 3.95m-41.618.68a1.975 1.975 0 1 0 0 3.95 1.975 1.975 0 0 0 0-3.95m5.945 0a1.975 1.975 0 1 0 0 3.95 1.975 1.975 0 0 0 0-3.95m5.946 3.95a1.975 1.975 0 1 0 0-3.95 1.975 1.975 0 0 0 0 3.95m5.945 0a1.975 1.975 0 1 0 0-3.95 1.975 1.975 0 0 0 0 3.95m5.946 0a1.975 1.975 0 1 0 0-3.95 1.975 1.975 0 0 0 0 3.95m5.945 0a1.975 1.975 0 1 0 0-3.95 1.975 1.975 0 0 0 0 3.95m5.946 0a1.975 1.975 0 1 0 0-3.95 1.975 1.975 0 0 0 0 3.95m5.945 0a1.975 1.975 0 1 0 0-3.95 1.975 1.975 0 0 0 0 3.95m-32.37 29.045h45.105v-20.502h-45.105zm45.104-78.592h-45.105v20.502h45.105zM53.673 837.073a2.6 2.6 0 0 0-1.737-.668 2.635 2.635 0 0 0-2.635 2.635c0 1.162.757 2.137 1.8 2.487l-1.132 1.961a2.6 2.6 0 0 0-1.623-.573 2.633 2.633 0 0 0-.978 5.078l-17.966 31.119h59.969l-29.985-51.935zm-17.781-33.218a2.635 2.635 0 1 0 0 5.27 2.635 2.635 0 0 0 0-5.27M41.703 813a2.635 2.635 0 1 0-5.27 0 2.635 2.635 0 0 0 5.27 0m-11.779 0a2.635 2.635 0 1 0 5.27 0 2.635 2.635 0 0 0-5.27 0m9.843 6.51a2.635 2.635 0 1 0 5.27 0 2.635 2.635 0 0 0-5.27 0m-6.51 0a2.635 2.635 0 1 0 5.27 0 2.635 2.635 0 0 0-5.27 0m-3.875 2.635a2.635 2.635 0 1 0 0-5.27 2.635 2.635 0 0 0 0 5.27m18.538 3.875a2.635 2.635 0 1 0-5.27 0 2.635 2.635 0 0 0 5.27 0m-6.51 0a2.635 2.635 0 1 0-5.27 0 2.635 2.635 0 0 0 5.27 0m-11.78 0a2.635 2.635 0 1 0 5.27 0 2.635 2.635 0 0 0-5.27 0m-6.51 0a2.635 2.635 0 1 0 5.27 0 2.635 2.635 0 0 0-5.27 0m28.427 6.51a2.635 2.635 0 1 0-5.27 0 2.635 2.635 0 0 0 5.27 0m-9.145 2.635a2.635 2.635 0 1 0 0-5.27 2.635 2.635 0 0 0 0 5.27m-9.145-2.635a2.635 2.635 0 1 0 5.27 0 2.635 2.635 0 0 0-5.27 0m-6.51 0a2.635 2.635 0 1 0 5.27 0 2.635 2.635 0 0 0-5.27 0m-3.875 2.635a2.635 2.635 0 1 0 0-5.27 2.635 2.635 0 0 0 0 5.27m25.189 3.875a2.635 2.635 0 1 0-5.27 0 2.635 2.635 0 0 0 5.27 0m-6.51 0a2.635 2.635 0 1 0-5.27 0 2.635 2.635 0 0 0 5.27 0m-9.145 2.635a2.635 2.635 0 1 0 0-5.27 2.635 2.635 0 0 0 0 5.27m-3.875-2.635a2.635 2.635 0 1 0-5.27 0 2.635 2.635 0 0 0 5.27 0m-6.51 0a2.635 2.635 0 1 0-5.27 0 2.635 2.635 0 0 0 5.27 0m19.815 9.145a2.635 2.635 0 1 0 0-5.27 2.635 2.635 0 0 0 0 5.27m-6.51 0a2.635 2.635 0 1 0 0-5.27 2.635 2.635 0 0 0 0 5.27m-3.875-2.635a2.635 2.635 0 1 0-5.27 0 2.635 2.635 0 0 0 5.27 0m-9.145-2.635a2.635 2.635 0 1 0 0 5.27 2.635 2.635 0 0 0 0-5.27m-6.51 0a2.635 2.635 0 1 0 0 5.27 2.635 2.635 0 0 0 0-5.27m637.375 200.602a1.83 1.83 0 1 0 0 3.658 1.83 1.83 0 0 0 0-3.658m0-5.939a1.83 1.83 0 1 0 0 3.658 1.83 1.83 0 0 0 0-3.658m0-5.94a1.83 1.83 0 1 0 0 3.658 1.83 1.83 0 0 0 0-3.658m0-2.281a1.83 1.83 0 1 0 0-3.658 1.83 1.83 0 0 0 0 3.658m-5.483 20.099a1.83 1.83 0 1 0 0 3.658 1.83 1.83 0 0 0 0-3.658m0-5.939a1.83 1.83 0 1 0 0 3.658 1.83 1.83 0 0 0 0-3.658m0-5.939a1.83 1.83 0 1 0 0 3.658 1.83 1.83 0 0 0 0-3.658m0-5.94a1.83 1.83 0 1 0 0 3.658 1.83 1.83 0 0 0 0-3.658m0-5.939a1.83 1.83 0 1 0 0 3.658 1.83 1.83 0 0 0 0-3.658m0-5.939a1.83 1.83 0 1 0 0 3.658 1.83 1.83 0 0 0 0-3.658m-5.483 35.635a1.83 1.83 0 1 0 0 3.658 1.83 1.83 0 0 0 0-3.658m0-5.939a1.83 1.83 0 1 0 0 3.658 1.83 1.83 0 0 0 0-3.658m0-5.939a1.83 1.83 0 1 0 0 3.658 1.83 1.83 0 0 0 0-3.658m0-5.939a1.83 1.83 0 1 0 0 3.658 1.83 1.83 0 0 0 0-3.658m0-5.94a1.83 1.83 0 1 0 0 3.658 1.83 1.83 0 0 0 0-3.658m0-5.939a1.83 1.83 0 1 0 0 3.658 1.83 1.83 0 0 0 0-3.658m0-5.939a1.83 1.83 0 1 0 0 3.658 1.83 1.83 0 0 0 0-3.658m0-5.939a1.83 1.83 0 1 0 0 3.658 1.83 1.83 0 0 0 0-3.658m-5.484 41.574a1.83 1.83 0 1 0 0 3.658 1.83 1.83 0 0 0 0-3.658m0-5.939a1.83 1.83 0 1 0 0 3.658 1.83 1.83 0 0 0 0-3.658m0-5.939a1.83 1.83 0 1 0 0 3.658 1.83 1.83 0 0 0 0-3.658m0-5.939a1.83 1.83 0 1 0 0 3.658 1.83 1.83 0 0 0 0-3.658m0-5.94a1.83 1.83 0 1 0 0 3.658 1.83 1.83 0 0 0 0-3.658m0-5.939a1.83 1.83 0 1 0 0 3.658 1.83 1.83 0 0 0 0-3.658m0-5.939a1.83 1.83 0 1 0 0 3.658 1.83 1.83 0 0 0 0-3.658m0-5.939a1.83 1.83 0 1 0 0 3.658 1.83 1.83 0 0 0 0-3.658m-5.483 41.574a1.83 1.83 0 1 0 0 3.658 1.83 1.83 0 0 0 0-3.658m0-5.939a1.83 1.83 0 1 0 0 3.658 1.83 1.83 0 0 0 0-3.658m0-5.939a1.83 1.83 0 1 0 0 3.658 1.83 1.83 0 0 0 0-3.658m0-5.939a1.83 1.83 0 1 0 0 3.658 1.83 1.83 0 0 0 0-3.658m0-5.94a1.83 1.83 0 1 0 0 3.658 1.83 1.83 0 0 0 0-3.658m0-5.939a1.83 1.83 0 1 0 0 3.658 1.83 1.83 0 0 0 0-3.658m0-5.939a1.83 1.83 0 1 0 0 3.658 1.83 1.83 0 0 0 0-3.658m0-5.939a1.83 1.83 0 1 0 0 3.658 1.83 1.83 0 0 0 0-3.658m-5.483 41.574a1.83 1.83 0 1 0 0 3.658 1.83 1.83 0 0 0 0-3.658m0-5.939a1.83 1.83 0 1 0 0 3.658 1.83 1.83 0 0 0 0-3.658m0-5.939a1.83 1.83 0 1 0 0 3.658 1.83 1.83 0 0 0 0-3.658m0-5.939a1.83 1.83 0 1 0 0 3.658 1.83 1.83 0 0 0 0-3.658m0-5.94a1.83 1.83 0 1 0 0 3.658 1.83 1.83 0 0 0 0-3.658m0-5.939a1.83 1.83 0 1 0 0 3.658 1.83 1.83 0 0 0 0-3.658m0-5.939a1.83 1.83 0 1 0 0 3.658 1.83 1.83 0 0 0 0-3.658m0-5.939a1.83 1.83 0 1 0 0 3.658 1.83 1.83 0 0 0 0-3.658m-5.483 41.574a1.83 1.83 0 1 0 0 3.658 1.83 1.83 0 0 0 0-3.658m0-5.939a1.83 1.83 0 1 0 0 3.658 1.83 1.83 0 0 0 0-3.658m0-5.939a1.83 1.83 0 1 0 0 3.658 1.83 1.83 0 0 0 0-3.658m0-5.939a1.83 1.83 0 1 0 0 3.658 1.83 1.83 0 0 0 0-3.658m0-5.94a1.83 1.83 0 1 0 0 3.658 1.83 1.83 0 0 0 0-3.658m0-5.939a1.83 1.83 0 1 0 0 3.658 1.83 1.83 0 0 0 0-3.658m0-5.939a1.83 1.83 0 1 0 0 3.658 1.83 1.83 0 0 0 0-3.658m-5.483 29.696a1.83 1.83 0 1 0 0 3.658 1.83 1.83 0 0 0 0-3.658m0-5.939a1.83 1.83 0 1 0 0 3.658 1.83 1.83 0 0 0 0-3.658m0-5.939a1.83 1.83 0 1 0 0 3.658 1.83 1.83 0 0 0 0-3.658m0-5.94a1.83 1.83 0 1 0 0 3.658 1.83 1.83 0 0 0 0-3.658m-5.484 11.879a1.83 1.83 0 1 0 0 3.658 1.83 1.83 0 0 0 0-3.658m0-5.939a1.83 1.83 0 1 0 0 3.658 1.83 1.83 0 0 0 0-3.658m15.042-27.607-13.046-22.596h-26.092l-13.046 22.596 13.046 22.596h22.513a1.8 1.8 0 0 0-.246.9 1.83 1.83 0 0 0 3.658 0 1.8 1.8 0 0 0-.246-.9h.412l2.176-3.768a1.83 1.83 0 0 0 3.141-1.271c0-.856-.591-1.57-1.386-1.769l4.795-8.305c.081.011.161.025.245.025a1.83 1.83 0 0 0 1.829-1.829 1.8 1.8 0 0 0-.389-1.115l2.635-4.564ZM86.066 1164.2a1.975 1.975 0 1 0 0 3.95 1.975 1.975 0 0 0 0-3.95m-5.945 0a1.975 1.975 0 1 0 0 3.95 1.975 1.975 0 0 0 0-3.95m-5.946 3.95a1.975 1.975 0 1 0 0-3.95 1.975 1.975 0 0 0 0 3.95m-5.945 0a1.975 1.975 0 1 0 0-3.95 1.975 1.975 0 0 0 0 3.95m-5.946 0a1.975 1.975 0 1 0 0-3.95 1.975 1.975 0 0 0 0 3.95m-5.945 0a1.975 1.975 0 1 0 0-3.95 1.975 1.975 0 0 0 0 3.95m-5.946 0a1.975 1.975 0 1 0 0-3.95 1.975 1.975 0 0 0 0 3.95m-5.945 0a1.975 1.975 0 1 0 0-3.95 1.975 1.975 0 0 0 0 3.95m41.618.68a1.975 1.975 0 1 0 0 3.95 1.975 1.975 0 0 0 0-3.95m-5.945 0a1.975 1.975 0 1 0 0 3.95 1.975 1.975 0 0 0 0-3.95m-5.946 3.95a1.975 1.975 0 1 0 0-3.95 1.975 1.975 0 0 0 0 3.95m-5.945 0a1.975 1.975 0 1 0 0-3.95 1.975 1.975 0 0 0 0 3.95m-5.946 0a1.975 1.975 0 1 0 0-3.95 1.975 1.975 0 0 0 0 3.95m-5.945 0a1.975 1.975 0 1 0 0-3.95 1.975 1.975 0 0 0 0 3.95m-5.946 0a1.975 1.975 0 1 0 0-3.95 1.975 1.975 0 0 0 0 3.95m-5.945 0a1.975 1.975 0 1 0 0-3.95 1.975 1.975 0 0 0 0 3.95m41.618.679a1.975 1.975 0 1 0 0 3.95 1.975 1.975 0 0 0 0-3.95m-5.945 0a1.975 1.975 0 1 0 0 3.95 1.975 1.975 0 0 0 0-3.95m-5.946 3.95a1.975 1.975 0 1 0 0-3.95 1.975 1.975 0 0 0 0 3.95m-5.945 0a1.975 1.975 0 1 0 0-3.95 1.975 1.975 0 0 0 0 3.95m-5.946 0a1.975 1.975 0 1 0 0-3.95 1.975 1.975 0 0 0 0 3.95m-5.945 0a1.975 1.975 0 1 0 0-3.95 1.975 1.975 0 0 0 0 3.95m-5.946 0a1.975 1.975 0 1 0 0-3.95 1.975 1.975 0 0 0 0 3.95m-5.945 0a1.975 1.975 0 1 0 0-3.95 1.975 1.975 0 0 0 0 3.95m41.618.68a1.975 1.975 0 1 0 0 3.95 1.975 1.975 0 0 0 0-3.95m-5.945 0a1.975 1.975 0 1 0 0 3.95 1.975 1.975 0 0 0 0-3.95m-5.946 3.95a1.975 1.975 0 1 0 0-3.95 1.975 1.975 0 0 0 0 3.95m-5.945 0a1.975 1.975 0 1 0 0-3.95 1.975 1.975 0 0 0 0 3.95m-5.946 0a1.975 1.975 0 1 0 0-3.95 1.975 1.975 0 0 0 0 3.95m-5.945 0a1.975 1.975 0 1 0 0-3.95 1.975 1.975 0 0 0 0 3.95m-5.946 0a1.975 1.975 0 1 0 0-3.95 1.975 1.975 0 0 0 0 3.95m-5.945 0a1.975 1.975 0 1 0 0-3.95 1.975 1.975 0 0 0 0 3.95m41.618.68a1.975 1.975 0 1 0 0 3.95 1.975 1.975 0 0 0 0-3.95m-5.945 0a1.975 1.975 0 1 0 0 3.95 1.975 1.975 0 0 0 0-3.95m-5.946 3.949a1.975 1.975 0 1 0 0-3.95 1.975 1.975 0 0 0 0 3.95m-5.945 0a1.975 1.975 0 1 0 0-3.95 1.975 1.975 0 0 0 0 3.95m-5.946 0a1.975 1.975 0 1 0 0-3.95 1.975 1.975 0 0 0 0 3.95m-5.945 0a1.975 1.975 0 1 0 0-3.95 1.975 1.975 0 0 0 0 3.95m-5.946 0a1.975 1.975 0 1 0 0-3.95 1.975 1.975 0 0 0 0 3.95m-5.945 0a1.975 1.975 0 1 0 0-3.95 1.975 1.975 0 0 0 0 3.95m-12.734 29.045h45.105v-20.502H31.714zm0-58.09h45.105v-20.502H31.714z" opacity=".5"/></svg>