<svg xmlns="http://www.w3.org/2000/svg" width="655" height="490" viewBox="0 0 655 490"><path fill="#bed3e0" d="M99.371 187.074a2.637 2.637 0 1 0 0-5.274 2.637 2.637 0 0 0 0 5.274m-3.179 6.515a2.637 2.637 0 1 0 0-5.274 2.637 2.637 0 0 0 0 5.274m3.878-2.637a2.637 2.637 0 1 0 5.274 0 2.637 2.637 0 0 0-5.274 0m-7.214 9.152a2.637 2.637 0 1 0 0-5.274 2.637 2.637 0 0 0 0 5.274m6.515-5.274a2.637 2.637 0 1 0 0 5.274 2.637 2.637 0 0 0 0-5.274m3.878 2.637a2.637 2.637 0 1 0 5.274 0 2.637 2.637 0 0 0-5.274 0m-13.278 9.152a2.637 2.637 0 1 0 0-5.274 2.637 2.637 0 0 0 0 5.274m3.878-2.637a2.637 2.637 0 1 0 5.274 0 2.637 2.637 0 0 0-5.274 0m11.79 0a2.637 2.637 0 1 0-5.275 0 2.637 2.637 0 0 0 5.274 0m1.24 0a2.637 2.637 0 1 0 5.274 0 2.637 2.637 0 0 0-5.274 0m-20.538 9.152a2.637 2.637 0 1 0 0-5.274 2.637 2.637 0 0 0 0 5.274m3.878-2.637a2.637 2.637 0 1 0 5.274 0 2.637 2.637 0 0 0-5.274 0m6.515 0a2.637 2.637 0 1 0 5.274 0 2.637 2.637 0 0 0-5.274 0m11.79 0a2.637 2.637 0 1 0-5.275 0 2.637 2.637 0 0 0 5.274 0m1.24 0a2.637 2.637 0 1 0 5.274 0 2.637 2.637 0 0 0-5.274 0m-22.57 6.515a2.637 2.637 0 1 0 5.273 0 2.637 2.637 0 0 0-5.274 0m11.788 0a2.637 2.637 0 1 0-5.274 0 2.637 2.637 0 0 0 5.274 0m6.515 0a2.637 2.637 0 1 0-5.274 0 2.637 2.637 0 0 0 5.274 0m6.515 0a2.637 2.637 0 1 0-5.274 0 2.637 2.637 0 0 0 5.274 0m6.515 0a2.637 2.637 0 1 0-5.274 0 2.637 2.637 0 0 0 5.274 0m-28.982 6.515a2.637 2.637 0 0 0-2.637-2.637c-.616 0-1.175.22-1.624.574l-1.133-1.963a2.63 2.63 0 0 0 1.801-2.489 2.637 2.637 0 0 0-2.637-2.637c-.67 0-1.273.258-1.738.668l-5.718-9.903-30.008 51.975h60.016l-17.98-31.143a2.63 2.63 0 0 0 1.658-2.445m3.878 2.637a2.637 2.637 0 1 0 0-5.274 2.637 2.637 0 0 0 0 5.274m6.515 0a2.637 2.637 0 1 0 0-5.274 2.637 2.637 0 0 0 0 5.274m6.515-5.274a2.637 2.637 0 1 0 0 5.274 2.637 2.637 0 0 0 0-5.274m6.515 0a2.637 2.637 0 1 0 0 5.274 2.637 2.637 0 0 0 0-5.274m6.515 0a2.637 2.637 0 1 0 0 5.274 2.637 2.637 0 0 0 0-5.274m30.393-116.024a1.83 1.83 0 1 0 0 3.661 1.83 1.83 0 0 0 0-3.66m0-5.943a1.83 1.83 0 1 0 0 3.66 1.83 1.83 0 0 0 0-3.66m0-5.944a1.83 1.83 0 1 0 0 3.661 1.83 1.83 0 0 0 0-3.661m0-5.944a1.83 1.83 0 1 0 0 3.661 1.83 1.83 0 0 0 0-3.66m5.487 23.775a1.83 1.83 0 1 0 0 3.661 1.83 1.83 0 0 0 0-3.66m0-5.944a1.83 1.83 0 1 0 0 3.661 1.83 1.83 0 0 0 0-3.66m0-5.943a1.83 1.83 0 1 0 0 3.66 1.83 1.83 0 0 0 0-3.66m0-5.944a1.83 1.83 0 1 0 0 3.661 1.83 1.83 0 0 0 0-3.661m0-5.944a1.83 1.83 0 1 0 0 3.661 1.83 1.83 0 0 0 0-3.66m0-5.943a1.83 1.83 0 1 0 0 3.66 1.83 1.83 0 0 0 0-3.66m5.487 35.662a1.83 1.83 0 1 0 0 3.66 1.83 1.83 0 0 0 0-3.66m0-5.944a1.83 1.83 0 1 0 0 3.66 1.83 1.83 0 0 0 0-3.66m0-5.944a1.83 1.83 0 1 0 0 3.661 1.83 1.83 0 0 0 0-3.66m0-5.943a1.83 1.83 0 1 0 0 3.66 1.83 1.83 0 0 0 0-3.66m0-5.944a1.83 1.83 0 1 0 0 3.66 1.83 1.83 0 0 0 0-3.66m0-5.944a1.83 1.83 0 1 0 0 3.661 1.83 1.83 0 0 0 0-3.66m0-5.943a1.83 1.83 0 1 0 0 3.66 1.83 1.83 0 0 0 0-3.66m0-5.944a1.83 1.83 0 1 0 0 3.66 1.83 1.83 0 0 0 0-3.66m5.488 41.606a1.83 1.83 0 1 0 0 3.66 1.83 1.83 0 0 0 0-3.66m0-5.944a1.83 1.83 0 1 0 0 3.661 1.83 1.83 0 0 0 0-3.66m0-5.944a1.83 1.83 0 1 0 0 3.661 1.83 1.83 0 0 0 0-3.66m0-5.943a1.83 1.83 0 1 0 0 3.66 1.83 1.83 0 0 0 0-3.66m0-5.944a1.83 1.83 0 1 0 0 3.661 1.83 1.83 0 0 0 0-3.661m0-5.944a1.83 1.83 0 1 0 0 3.661 1.83 1.83 0 0 0 0-3.66m0-5.943a1.83 1.83 0 1 0 0 3.66 1.83 1.83 0 0 0 0-3.66m0-5.944a1.83 1.83 0 1 0 0 3.66 1.83 1.83 0 0 0 0-3.66m5.487 41.606a1.83 1.83 0 1 0 0 3.66 1.83 1.83 0 0 0 0-3.66m0-5.944a1.83 1.83 0 1 0 0 3.661 1.83 1.83 0 0 0 0-3.66m0-5.944a1.83 1.83 0 1 0 0 3.661 1.83 1.83 0 0 0 0-3.66m0-5.943a1.83 1.83 0 1 0 0 3.66 1.83 1.83 0 0 0 0-3.66m0-5.944a1.83 1.83 0 1 0 0 3.661 1.83 1.83 0 0 0 0-3.661m0-5.944a1.83 1.83 0 1 0 0 3.661 1.83 1.83 0 0 0 0-3.66m0-5.943a1.83 1.83 0 1 0 0 3.66 1.83 1.83 0 0 0 0-3.66m0-5.944a1.83 1.83 0 1 0 0 3.66 1.83 1.83 0 0 0 0-3.66m5.488 45.267a1.83 1.83 0 1 0 0-3.661 1.83 1.83 0 0 0 0 3.66m0-5.944a1.83 1.83 0 1 0 0-3.66 1.83 1.83 0 0 0 0 3.66m0-5.944a1.83 1.83 0 1 0 0-3.66 1.83 1.83 0 0 0 0 3.66m0-5.943a1.83 1.83 0 1 0 0-3.661 1.83 1.83 0 0 0 0 3.66m0-5.944a1.83 1.83 0 1 0 0-3.66 1.83 1.83 0 0 0 0 3.66m0-5.944a1.83 1.83 0 1 0 0-3.66 1.83 1.83 0 0 0 0 3.66m0-5.943a1.83 1.83 0 1 0 0-3.661 1.83 1.83 0 0 0 0 3.66m0-5.944a1.83 1.83 0 1 0 0-3.661 1.83 1.83 0 0 0 0 3.66m5.487 41.606a1.83 1.83 0 1 0 0-3.661 1.83 1.83 0 0 0 0 3.66m0-9.605a1.83 1.83 0 1 0 0 3.661 1.83 1.83 0 0 0 0-3.66m0-5.944a1.83 1.83 0 1 0 0 3.661 1.83 1.83 0 0 0 0-3.66m0-5.943a1.83 1.83 0 1 0 0 3.66 1.83 1.83 0 0 0 0-3.66m0-5.944a1.83 1.83 0 1 0 0 3.661 1.83 1.83 0 0 0 0-3.661m0-5.944a1.83 1.83 0 1 0 0 3.661 1.83 1.83 0 0 0 0-3.66m0-5.943a1.83 1.83 0 1 0 0 3.66 1.83 1.83 0 0 0 0-3.66m-1.83-4.114c0 1.011.82 1.83 1.83 1.83.084 0 .165-.013.246-.024l4.798 8.312a1.827 1.827 0 1 0 1.757 3.041l2.177 3.772h.413a1.8 1.8 0 0 0-.246.9 1.83 1.83 0 0 0 3.66 0c0-.329-.093-.633-.246-.9h22.531l13.056-22.614L217.89 48.68h-26.112l-13.056 22.614 2.637 4.567c-.24.31-.39.694-.39 1.116m7.318 37.493a1.83 1.83 0 1 0 0-3.66 1.83 1.83 0 0 0 0 3.66m0-9.605a1.83 1.83 0 1 0 0 3.661 1.83 1.83 0 0 0 0-3.66m0-5.943a1.83 1.83 0 1 0 0 3.66 1.83 1.83 0 0 0 0-3.66m0-5.944a1.83 1.83 0 1 0 0 3.661 1.83 1.83 0 0 0 0-3.661m5.487 11.887a1.83 1.83 0 1 0 0 3.661 1.83 1.83 0 0 0 0-3.66m0-5.943a1.83 1.83 0 1 0 0 3.66 1.83 1.83 0 0 0 0-3.66m-16.382 283.286a1.976 1.976 0 1 0 0 3.952 1.976 1.976 0 0 0 0-3.952m5.95 0a1.976 1.976 0 1 0 0 3.952 1.976 1.976 0 0 0 0-3.952m5.95 3.952a1.976 1.976 0 1 0 0-3.952 1.976 1.976 0 0 0 0 3.952m5.95 0a1.976 1.976 0 1 0 0-3.952 1.976 1.976 0 0 0 0 3.952m5.95 0a1.976 1.976 0 1 0 0-3.952 1.976 1.976 0 0 0 0 3.952m5.95 0a1.976 1.976 0 1 0 0-3.952 1.976 1.976 0 0 0 0 3.952m5.95 0a1.976 1.976 0 1 0 0-3.952 1.976 1.976 0 0 0 0 3.952m5.95 0a1.976 1.976 0 1 0 0-3.952 1.976 1.976 0 0 0 0 3.952m-41.65.68a1.976 1.976 0 1 0 0 3.953 1.976 1.976 0 0 0 0-3.952m5.95 0a1.976 1.976 0 1 0 0 3.953 1.976 1.976 0 0 0 0-3.952m5.95 3.953a1.976 1.976 0 1 0 0-3.952 1.976 1.976 0 0 0 0 3.952m5.95 0a1.976 1.976 0 1 0 0-3.952 1.976 1.976 0 0 0 0 3.952m5.95 0a1.976 1.976 0 1 0 0-3.952 1.976 1.976 0 0 0 0 3.952m5.95 0a1.976 1.976 0 1 0 0-3.952 1.976 1.976 0 0 0 0 3.952m5.95 0a1.976 1.976 0 1 0 0-3.952 1.976 1.976 0 0 0 0 3.952m5.95 0a1.976 1.976 0 1 0 0-3.952 1.976 1.976 0 0 0 0 3.952m-41.65.68a1.976 1.976 0 1 0 0 3.953 1.976 1.976 0 0 0 0-3.952m5.95 0a1.976 1.976 0 1 0 0 3.953 1.976 1.976 0 0 0 0-3.952m5.95 3.953a1.976 1.976 0 1 0 0-3.952 1.976 1.976 0 0 0 0 3.952m5.95 0a1.976 1.976 0 1 0 0-3.952 1.976 1.976 0 0 0 0 3.952m5.95 0a1.976 1.976 0 1 0 0-3.952 1.976 1.976 0 0 0 0 3.952m5.95 0a1.976 1.976 0 1 0 0-3.952 1.976 1.976 0 0 0 0 3.952m5.95 0a1.976 1.976 0 1 0 0-3.952 1.976 1.976 0 0 0 0 3.952m5.95 0a1.976 1.976 0 1 0 0-3.952 1.976 1.976 0 0 0 0 3.952m-41.65.68a1.976 1.976 0 1 0 0 3.953 1.976 1.976 0 0 0 0-3.952m5.95 0a1.976 1.976 0 1 0 0 3.953 1.976 1.976 0 0 0 0-3.952m5.95 3.954a1.976 1.976 0 1 0 0-3.953 1.976 1.976 0 0 0 0 3.953m5.95 0a1.976 1.976 0 1 0 0-3.953 1.976 1.976 0 0 0 0 3.953m5.95 0a1.976 1.976 0 1 0 0-3.953 1.976 1.976 0 0 0 0 3.953m5.95 0a1.976 1.976 0 1 0 0-3.953 1.976 1.976 0 0 0 0 3.953m5.95 0a1.976 1.976 0 1 0 0-3.953 1.976 1.976 0 0 0 0 3.953m5.95 0a1.976 1.976 0 1 0 0-3.953 1.976 1.976 0 0 0 0 3.953m-41.65.68a1.976 1.976 0 1 0 0 3.953 1.976 1.976 0 0 0 0-3.953m5.95 0a1.976 1.976 0 1 0 0 3.953 1.976 1.976 0 0 0 0-3.953m5.95 3.953a1.976 1.976 0 1 0 0-3.953 1.976 1.976 0 0 0 0 3.953m5.95 0a1.976 1.976 0 1 0 0-3.953 1.976 1.976 0 0 0 0 3.953m5.95 0a1.976 1.976 0 1 0 0-3.953 1.976 1.976 0 0 0 0 3.953m5.95 0a1.976 1.976 0 1 0 0-3.953 1.976 1.976 0 0 0 0 3.953m5.95 0a1.976 1.976 0 1 0 0-3.953 1.976 1.976 0 0 0 0 3.953m5.95 0a1.976 1.976 0 1 0 0-3.953 1.976 1.976 0 0 0 0 3.953m-32.395 29.067h45.14v-20.518h-45.14zm0-78.652v20.518h45.14v-20.518z" opacity=".5"/></svg>