<svg xmlns="http://www.w3.org/2000/svg" width="242" height="100" viewBox="0 0 242 100"><path fill="#fff" d="M157.186 17.81c.259.032.485.027.733-.086.253-.097.555-.162.814-.14.232.019.442.081.684.002.216-.057.447-.03.679-.051.334-.024.658-.251 1.013-.049.065.024.189-.038.264-.075.146-.07.286-.162.399-.221.28.024.539.059.792.049.259 0 .507-.076.76-.092.334-.019.668-.216.992.073.065.051.227.019.34-.011.178-.046.35-.11.528-.181a2.6 2.6 0 0 1 1.17-.181c.189.008.377.008.571-.008.129-.014.297-.022.399-.089.221-.17.474-.181.739-.17.242.005.474-.102.755-.041.501.1 1.024.081 1.52-.116.151-.051.345-.14.474-.092.286.121.566.038.819-.03.62-.172 1.267-.046 1.871-.256.506.041.965-.119 1.439-.278.146-.057.318-.094.464-.062 1.035.205 2.054-.078 3.078-.113.038-.006.081-.041.129-.054.334-.084.674-.178 1.019-.24.199-.04.442-.1.614-.03.437.172.835.057 1.229-.086.237-.081.437-.11.679-.024.167.059.383.086.539.019.297-.105.598-.084.9-.092.313-.008.636.059.911-.027.62-.21 1.251-.07 1.881-.221a6.5 6.5 0 0 1 2.011-.172c.162.019.323-.059.48-.086.334-.049.657-.172 1.019-.059.21.059.458-.022.696-.041.205-.022.41-.057.625-.073.162-.022.34.032.485-.033.361-.151.739-.097 1.11-.113.162-.002.334.022.496-.014a8.4 8.4 0 0 1 2.426-.267c.108 0 .227-.035.34-.051.2-.024.415-.062.625-.078.161-.016.339.027.485-.027.604-.226 1.272 0 1.865-.251.739.078 1.402-.359 2.146-.294.016 0 .043 0 .065-.011a45 45 0 0 1 1.299-.688c.857-.916.981-1.485.296-2.396-.156-.227-.399-.399-.62-.558-.264-.197-.571-.329-.819-.536-.296-.275-.674-.14-.997-.24-.717-.232-1.402-.337-2.059-.488-.539-.116-1.078-.248-1.623-.342-.35-.067-.712-.116-1.073-.154-.636-.032-1.262-.189-1.909-.135a.2.2 0 0 1-.129-.019c-.275-.146-.582-.1-.884-.1h-1.283c-.167 0-.339-.027-.507-.051-.216-.024-.42-.076-.625-.078a35 35 0 0 0-1.682 0c-.55.005-1.105-.065-1.655-.011-.129.014-.275.016-.383-.032-.264-.116-.55-.081-.83-.086-.571-.016-1.159.032-1.719-.054a6.2 6.2 0 0 0-1.407-.07c-.895.075-1.779-.208-2.674-.051a.2.2 0 0 1-.059-.014c-.28-.022-.55-.067-.825-.07-.641-.016-1.288.003-1.935-.011-.631-.011-1.272.076-1.914.011a.7.7 0 0 0-.377.038c-.27.113-.55.086-.825.086h-4.442c-.189 0-.394-.046-.571.027-.313.124-.636.092-.949.108-.253.016-.517.118-.755.065-.28-.059-.55-.059-.825-.065-.151-.006-.318-.038-.447.016-.356.14-.717.092-1.083.113-.124 0-.253.005-.378.022-.582.062-1.153.243-1.752.108-.081-.011-.172 0-.253.008-.334.057-.663.137-.992.202-.086.016-.183.043-.253.011-.442-.221-.825.014-1.229.129-.183.049-.334.14-.55.124-.421-.027-.841.016-1.262.043-.232.024-.458.108-.684.129-.21.022-.415.006-.604.167-.21.167-.442-.129-.668-.011-.103.051-.2.081-.302.119-.447.14-.911.2-1.38.253-.296.022-.598-.049-.841.21-.07.054-.21.054-.313.043-.431-.035-.852.051-1.272.145-.512.111-1.057.172-1.536.399-.474.226-.933.407-1.455.431-.21.016-.415.054-.625.062-.221.008-.426.024-.62.124-.151.078-.334.097-.496.159-.275.102-.566.129-.835.302a1.3 1.3 0 0 1-.792.2c-.151-.016-.313 0-.447.04-.474.148-.933.315-1.396.472-.162.049-.329.076-.49.121-.102.022-.232.04-.302.094-.162.148-.345.164-.539.164-.2 0-.361.03-.517.186-.129.119-.361.178-.545.183-.318.027-.641.051-.895.28-.269.264-.631.011-.906.216-.016.016-.038.022-.059.03-.259.094-.523.175-.776.286a.75.75 0 0 0-.27.148c-.339.291-.922.684-.96.69-.458.11-.712.264-1.132.469-.183.094-.404.345-.615.388-.108.032-.243.032-.296.102-.243.351-.593.377-.959.423a1.2 1.2 0 0 0-.367.1c-.205.108-.393.272-.62.334-.28.089-.447.377-.706.42-.318.051-.555.237-.798.394-.528.342-1.089.614-1.547 1.073-.329.329-.723.62-1.094.895-.264.186-.572.307-.83.501-.194.143-.383.175-.598.175-.243 0-9.083.623-9.326.687-.28.076-.555.092-.835.097-.194 0-.394-.043-.561.019-.539.178-1.073.086-1.612.11-.232.016-.474-.016-.695.051-.28.081-.55.075-.83.097-.194 0-.377.019-.566.035-.253.022-.501.07-.76.076-.469.016-.943 0-1.407 0a12 12 0 0 0-.566.059c-.275.027-.55.07-.83.092-.205.014-.431-.032-.631.016-.582.148-1.164.092-1.752.108-.135 0-.291-.03-.415.016-.55.181-1.121.086-1.676.14-.604.059-1.207.137-1.817.135-.049 0-.092.022-.135.032-.253.022-.512.07-.765.075-.469.016-.938 0-1.413.006-.162 0-.339-.016-.485.04-.34.121-.69.089-1.046.094-.42.016-.857-.035-1.261.046-.377.073-.739.078-1.116.089-.354.006-.721-.048-1.055.038-.421.11-.83.092-1.253.097-.563.013-1.124 0-1.69.008a7 7 0 0 0-.561.035c-.275.024-.555.075-.834.092-.333.019-.658-.006-.986.005-.535.022-1.074-.086-1.602.119-.097.032-.229-.024-.346-.03q-.168-.009-.335-.006c-.206.011-.419.051-.628.051q-2.713.006-5.427.005c-.143 0-.294.019-.422-.022-.551-.186-1.114-.102-1.674-.119-.21-.005-.43.006-.632-.027-.667-.119-1.323-.267-1.992-.383-.659-.094-1.254-.356-1.825-.684a1.57 1.57 0 0 1-.788-1.105c-.05-.305-.028-.62.208-.852.198-.192.435-.345.678-.488.319-.191.66-.342.939-.601.148-.14.346-.242.546-.315a9 9 0 0 0 1.76-.833c.195-.113.427-.183.645-.269.172-.07.369-.102.526-.205.757-.515 1.752-.512 2.463-1.116.018-.016.046-.016.068-.027.593-.194 1.197-.388 1.788-.577q.529-.195 1.049-.383c.396-.145.783-.302 1.179-.453.523-.192 1.054-.367 1.557-.62.268-.14.573-.205.861-.302.354-.113.714-.21 1.062-.345.284-.102.553-.248.838-.342.472-.143.943-.267 1.418-.388.296-.086.563-.232.841-.337.267-.108.604-.024.9-.105.72-.181 1.434-.407 2.146-.628.732-.226 1.454-.469 2.182-.706.135-.049.264-.105.404-.119.841-.145 1.709-.199 2.512-.544.059-.027.135-.008.205-.022.388-.065.776-.129 1.17-.202.609-.11 1.186-.429 1.844-.361.086.008.172-.046.264-.075.248-.078.49-.164.733-.229.49-.124 1.008-.189 1.466-.442.097-.054.232-.054.345-.054.501.022.987-.032 1.45-.21.102-.048.227-.038.345-.059.41-.067.819-.148 1.24-.205.922-.116 1.806-.488 2.755-.48.07.008.14-.024.205-.043a7.2 7.2 0 0 1 2.34-.348c.14 0 .275-.051.42-.059 1.03-.143 2.038-.526 3.1-.488.679-.184 1.369-.232 2.064-.334.62-.094 1.229-.237 1.86-.216.21.011.426-.022.636-.048.205-.022.415-.086.62-.081.728.022 1.434-.124 2.145-.232.593-.097 1.197-.237 1.806-.189.351.027.733.062 1.057-.022.393-.113.782-.097 1.175-.113.464-.011.943.051 1.396-.124.102-.038.232-.008.351-.008.679 0 1.364-.008 2.043 0 .145 0 .296-.019.42.027.297.129.598.105.9.105.938.011 1.881 0 2.819 0h.684c.14.286.345.474.604.509.55.075 1.084.304 1.66.127.151-.14.28-.323.464-.421.447-.221.636-.598.744-1.04.081-.313.156-.636.2-.952a1.1 1.1 0 0 0-.043-.482c-.253-.728-.598-1.38-1.477-1.477-.07-.016-.145-.041-.21-.059-1.073-.243-2.14-.534-3.256-.302-.092.014-.189 0-.286.006-.604.038-1.219.038-1.806.156-.421.078-.836.092-1.262.119-.41.022-.83.137-1.24.108-.695-.04-1.358.135-2.027.192-.717.054-1.434.208-2.151.229-.097.011-.189.027-.286.038q-.931.114-1.87.226c-.555.059-1.111.113-1.671.181-.528.067-1.062.154-1.59.229-.437.062-.873.119-1.31.183-.555.076-1.11.146-1.66.221-.534.076-1.062.137-1.59.221q-.996.163-2 .334c-.663.092-1.326.189-2 .302-.135.019-.264.075-.399.097-.76.119-1.515.248-2.254.466-.129.035-.269.083-.404.083-.539.022-1.051.156-1.58.27-.96.189-1.914.372-2.868.571-.825.156-1.639.334-2.453.517-1.008.229-1.995.48-2.997.706-1.18.278-2.372.528-3.552.79-.496.127-.986.283-1.482.407-1.85.458-3.713.892-5.539 1.437-.537.162-1.073.326-1.607.466-.702.167-1.403.323-2.09.539-1.043.334-2.098.642-3.149.952-.067.03-.143.011-.209.04-.579.178-1.177.323-1.73.555-.419.164-.83.315-1.274.372-.679.081-1.272.431-1.92.593-.025.005-.05.022-.065.027-.391.331-.883.418-1.336.609-.898.372-1.802.768-2.666 1.229-.512.275-.981.614-1.467.927-.732.45-1.386.949-1.877 1.647a2.43 2.43 0 0 0-.481 1.28c-.019.175-.066.361-.089.539-.017.094-.052.189-.028.275.09.313.193.625.31.922.101.232.246.453.33.69.206.539.479 1.011.916 1.439.729.696 1.604 1.084 2.527 1.418.505.194 1.023.296 1.542.442.945.253 1.876.555 2.876.517.094 0 .19.024.276.019.375-.019.729.105 1.09.121.402.011.802 0 1.195 0h.85c.251.005.5 0 .748.135.137.075.377.067.536.005a2.28 2.28 0 0 1 1.63-.011c.322.129.671.148.959.011.276-.129.542-.135.818-.14.187 0 .388.038.562-.016.323-.1.625-.151.95 0 .096.043.232.022.344 0 .476-.075.958-.189 1.439-.253.33-.038.675-.226 1.018-.016.051.033.143.008.213.008.561 0 1.127.011 1.69-.008.202-.005.418-.043.601-.137.27-.127.537-.145.825-.105.089.011.181.043.267.035.466-.011.934-.075 1.403-.051.873.065 1.72-.17 2.587-.145.065 0 .135-.024.205-.043.615-.129 1.235-.253 1.865-.226.167.003.345.032.485-.027.313-.124.593-.097.89.011.124.038.28.011.415-.011.453-.102.911-.202 1.358-.323.302-.075.604-.092.9 0a.6.6 0 0 0 .474 0c.129-.032.275-.048.41-.054.685-.046 1.342-.21 2.027-.145a.6.6 0 0 0 .28-.07c.404-.178.878-.049 1.283-.264.049-.027.146-.011.2.022.264.129.523.081.798.092.404.006.793-.057 1.181-.067.512-.014 1.019-.132 1.531-.197.339-.04.695-.124 1.035-.094.372.035.744.024 1.121-.014.555-.054 1.121-.092 1.676-.14.895-.059 1.784-.108 2.674-.175a2 2 0 0 0 .345-.051c.501-.124.992-.296 1.525-.205a.74.74 0 0 0 .415-.059c.356-.151.733-.105 1.111-.116.302-.005.609.035.873-.181.048-.049.178-.038.259-.022.561.105 1.121.129 1.65-.113.027-.016.086.019.124.027.016.041.049.108.032.121q-.753.878-1.515 1.728c-.356.396-.749.779-1.084 1.186-.48.598-.857 1.27-1.407 1.819-.216.208-.393.45-.571.698-.447.649-.884 1.304-1.331 1.959-.205.286-.458.539-.62.841-.383.72-1.024 1.278-1.326 2.051-.005.022-.027.038-.038.048q-.501.768-1.002 1.512c-.167.256-.41.477-.496.757-.113.367-.356.647-.528.976-.162.329-.227.714-.539.965-.043.415-.442.636-.593.997a20 20 0 0 1-.83 1.698c-.404.771-.728 1.596-1.132 2.372-.598 1.135-.949 2.377-1.552 3.499-.081.161-.086.367-.194.501-.097.129-.162.216-.113.372a.83.83 0 0 1-.205.771 2.4 2.4 0 0 0-.507.819c-.113.297-.21.604-.296.911-.054.172-.183.323-.092.534.032.065-.022.172-.054.256-.119.299-.345.585-.356.892-.038.701-.55 1.294-.474 2.005.005.043-.022.092-.049.135-.269.412-.307.911-.458 1.369-.049.151-.07.326-.043.477a.65.65 0 0 1-.124.585c-.184.227-.237.491-.259.782-.032.48-.124.96-.2 1.439-.059.345-.205.685-.162 1.019.038.428-.027.819-.14 1.213-.081.313-.221.615-.264.927-.07.55-.086 1.113-.129 1.655-.043.596-.183 1.153-.302 1.752a22 22 0 0 0-.668.027c-.162 0-.345-.027-.49.022-.318.137-.647.135-.965.108-.685-.054-1.348.121-2.021.156-.442.022-.874.183-1.305.291-.658.183-1.331.259-2.021.183-.572-.065-1.137-.086-1.736.035-.841.17-1.698.251-2.522.512-.11.041-.232.041-.342.062-.493.129-1.008.164-1.485.367a6 6 0 0 1-.862.286c-1.076.253-2.028.712-2.83 1.466a2 2 0 0 0-.344.437c-.282.49-.479.997-.52 1.593.16.331.26.704.495 1.038.09.124.109.302.148.458.059.259.166.49.372.663.476.372.93.782 1.536.943.426.119.868.189 1.283.351.447.167.906.221 1.377.2.652-.049 1.317.086 1.963-.089.076-.035.178.041.27.041.706.005 1.423.105 2.108 0 .668-.108 1.326-.27 2.011-.248.092.006.183-.027.275-.035.695-.075 1.391-.145 2.086-.229.248-.027.512-.054.755-.135.312-.113.636-.148.959-.14.453.016.89-.083 1.299-.251.146-.065.307-.132.464-.137.469-.024.933-.03 1.396-.14.609-.129 1.234-.178 1.849-.342.129-.041.275-.078.415-.078.582 0 1.148-.154 1.703-.307.14-.038.275-.102.404-.097.41.04.809-.035 1.17-.172.383-.145.787-.105 1.17-.181.755-.148 1.493-.391 2.275-.351.27.008.55-.116.814-.208.086-.022.146-.145.216-.232-.474-.337-.965-.423-1.499-.393-.377.027-.755 0-1.121.005-.447.011-.889.022-1.331.092-.431.086-.878.119-1.31.178-.28.038-.555.022-.83.113a4 4 0 0 1-.959.156c-.539.03-1.057.172-1.59.232-.528.065-1.046.243-1.59.191-.183-.008-.372.051-.555.073-.41.067-.825.145-1.24.194-.534.065-1.073.086-1.601.162-.685.119-1.369.267-2.07.256-.124 0-.232.024-.351.035-.259.038-.501.07-.76.1-.167.008-.339-.03-.49.014-.464.164-.927.097-1.396.119-.28.005-.582-.038-.841.043-.345.097-.695.097-1.04.097-.706.006-1.418-.022-2.117.006-.566.022-1.127-.016-1.668-.17-.65-.172-1.315-.283-1.884-.712-.256-.197-.464-.383-.528-.731.183-.372.512-.482.811-.668.598-.356 1.253-.517 1.897-.701.606-.172 1.227-.28 1.845-.402q.929-.165 1.865-.278c.28-.035.555-.038.835-.11.388-.1.755-.019.981.348.178.302.372.604.469.927.216.706.809.846 1.402.986.108.019.28-.049.367-.14.469-.41 1.024-.561 1.628-.534.819.049 1.628-.226 2.447-.14.049 0 .092-.011.135-.022.733-.151 1.466-.275 2.226-.253.092.005.189.022.275-.011.501-.172 1.019-.1 1.536-.124.14 0 .286.016.415-.011.782-.167 1.569-.275 2.366-.256.119 0 .232-.019.351-.041.275-.03.555-.07.83-.094.189-.014.388.03.561-.019.684-.21 1.407-.016 2.092-.24 1.019-.046 2.048-.089 3.078-.135.237-.014.485-.137.685-.078.496.159.981.065 1.466.054.679 0 1.353-.097 2.027-.189a.67.67 0 0 0 .598-.523c.065-.259-.124-.431-.313-.577-.092-.073-.2-.127-.291-.191-.264-.159-.523-.329-.782-.48a.7.7 0 0 1-.367-.402c-.172-.512-.528-.916-.841-1.331-.075-.105-.21-.229-.323-.243-.447-.038-.873-.275-1.299-.269-.749.011-1.482-.205-2.232-.205a228 228 0 0 0-4.296 0c-.162 0-.345-.016-.485.054-.437.197-.852.118-1.278.07-.124-.27-.07-.491-.011-.714.102-.456.221-.906.318-1.367.065-.312.21-.622.027-.943-.043-.076 0-.186.006-.275.043-.369.043-.744.151-1.094.108-.361.226-.696.118-1.068-.005-.035.043-.081.054-.127.194-.741.221-1.504.339-2.253.027-.202.043-.412.129-.609.086-.164.113-.347.145-.531.119-.539.178-1.1.34-1.622.312-.976.474-1.978.631-2.981.07-.453.167-.911.28-1.353.059-.253.156-.485.135-.752a1.3 1.3 0 0 1 .043-.348c.108-.402.232-.803.351-1.197.232-.749.55-1.469.684-2.253.011-.084.027-.189.086-.253.156-.175.184-.377.178-.585 0-.089-.006-.202.038-.275.372-.515.485-1.146.776-1.69.189-.375.367-.749.437-1.175a.6.6 0 0 1 .146-.307c.383-.394.55-.911.765-1.386.248-.55.485-1.102.733-1.644.205-.439.458-.846.722-1.264.334-.526.723-1.021.987-1.598.313-.679.738-1.296 1.18-1.892.14-.183.253-.388.253-.636-.011-.372.334-.601.367-.943l.571-.167c.124-.377.474-.641.491-1.07 0-.057.075-.143.129-.151.393-.1.55-.429.695-.736.135-.275.232-.528.496-.728.162-.121.205-.404.286-.62.092-.264.458-.208.539-.507.038-.145.167-.275.264-.404.313-.369.679-.706.96-1.108.248-.342.555-.622.825-.941.345-.404.798-.712 1.073-1.178l-.002.007c.054-.097.178-.148.269-.235.14-.135.334-.253.431-.426.189-.307.415-.388.765-.345.318.043.69.086.97-.043.307-.146.62-.172.922-.291.237-.075.447-.054.684-.005.296.054.62.127.906.057.399-.094.765.04 1.148.002.21-.011.437.043.62-.024.614-.218 1.234-.251 1.876-.224.334.014.631-.057.943-.194.307-.129.641-.342 1.002-.14.033.019.097.038.129.014.156-.049.302-.159.453-.186.167-.022.307.186.523.102.21-.081.458-.092.674-.172.383-.156.776-.14 1.159-.054.145.024.307.102.404.059.431-.21.895-.011 1.315-.202.415.108.83-.14 1.235-.046.442.113.868-.003 1.31-.019.221-.003.458-.132.679-.121.356.022.641-.094.906-.291.345.162.668.186 1.019.046.264-.1.571-.027.792-.253.049-.057.183-.067.264-.054.28.073.55.03.83 0 .248-.019.517.03.771-.035.253-.059.534.121.749-.097.544-.008 1.057-.21 1.606-.145.156.011.323-.035.485-.054.28-.027.555-.102.83-.065m-45.067 47.499v.002c-.793.059-1.586.097-2.378.137q-.039-.001-.07 0c-.372.057-.738.113-1.11.151-.35.019-.695-.019-1.046.086-.237.067-.507.027-.76.035-.361.016-.701-.008-1.051.108-.183.065-.41.003-.62-.022-.048-.011-.113-.094-.118-.151-.016-.051.027-.135.07-.167.102-.054.216-.105.323-.119.399-.032.798.043 1.175-.14.512.14 1.013-.051 1.52-.022.512.022 1.03.07 1.531-.108.108-.038.232-.016.351-.016.657 0 1.315-.003 1.973 0 .129.011.264.032.528.059-.178.097-.243.167-.318.167m43.33-48.666a1 1 0 0 1-.253.035c-.275.011-.545.019-.83.105-.21.076-.464.027-.695.027-.297.011-.598-.032-.89.1-.07.035-.167.03-.248.03-.361.005-.733-.03-1.083.129-.642-.073-1.267.118-1.903.143-.782.024-1.563.073-2.334.245-.102.022-.221.005-.323.005-.404.016-.808-.035-1.202.124-.501-.073-.97.129-1.461.145-.296.016-.582.097-.879.129-.302.016-.598 0-.889.1-.135.057-.297.024-.442.027-.453.019-.895-.046-1.337.116-.189.07-.426.011-.641.024-.189 0-.394-.019-.571.03a.62.62 0 0 1-.485-.03c-.259-.132-.733.081-1.396.251a2 2 0 0 1-.377.022c-.453.016-.895-.022-1.342.113-.232.073-.792-.275-1.051-.291l-.004-.003c-.022 0-.054-.065-.075-.108.367-.679 1.757-1.396 2.113-1.547 1.067-.458 2.14-.906 3.197-1.385.895-.407 3.693-1.52 4.959-1.892.809-.245 1.644-.442 2.464-.636.517-.129 1.04-.213 1.558-.339.307-.075.609-.183.916-.278.517-.145 1.035-.283 1.542-.439.065-.011.124-.043.183-.043.674-.011 1.294-.28 1.946-.372.426-.048.852-.097 1.251-.259a.54.54 0 0 1 .259-.027c.62.065 1.229-.092 1.844-.145.145-.014.286-.07.426-.124a2.94 2.94 0 0 1 1.245-.253c.34.005.69.038 1.013-.108a.5.5 0 0 1 .248-.016c.528.022 1.019-.14 1.52-.221.399-.065.798-.119 1.197-.183.146-.022.291-.054.442-.078.145-.019.296-.059.437-.04.512.081 1.003.022 1.499-.105.124-.04.253-.03.383-.03.34-.016.668-.011 1.019-.097.339-.094.712-.03 1.073-.038s.728.043 1.078-.097c.135-.07.296-.035.447-.035h1.601c.367-.006.733.04 1.083-.102.135-.049.302-.024.453-.024h1.989c.296 0 .604 0 .9-.019.264-.019.539-.1.798-.094.529.014 1.051-.129 1.585-.027.162.03.334.006.501.006h8.054c.313.005.631-.033.943.11.108.051.253.024.388.024.55 0 1.11.005 1.671 0 .205-.011.415-.081.625-.092.367-.019.733-.076 1.084 0 .275.062.545.081.825.092.167.005.351-.019.507.024.194.046.356.057.55.003.184-.046.383.005.577.024.189.019.377.068.566.076.469.024.943-.046 1.396.121.081.027.172.019.264.011.933-.043 1.822.178 2.711.437.431.129.868.259 1.294.394.065.019.14.032.172.086.297.369.598.752.62 1.261-.448.226-1.31.474-1.72.512-.399.038-.792.108-1.197.167-.431.075-.879.132-1.31.232-.453.116-.938.065-1.386.232q-.024.015-.065.014c-.722-.003-1.429.151-2.145.272-.162.027-.34 0-.512 0-.259.005-.517-.041-.76.102a.3.3 0 0 1-.124.027c-.614.043-1.229.083-1.849.129-.205.027-.41.065-.625.094-.151.016-.296.03-.447.035-.237.016-.469-.019-.69.097a.18.18 0 0 1-.124.03c-.604-.067-1.186.145-1.784.132-.518-.011-1.008.143-1.52.199-.183.011-.377.065-.566.065a9.8 9.8 0 0 0-2.35.237c-.264.07-.55.022-.825.024-.302.014-.598-.024-.89.102-.113.046-.253.019-.383.024-.237.032-.469.07-.695.092a5 5 0 0 1-.577.035c-.383.014-.771-.035-1.143.116-.113.049-.253.024-.388.016a8 8 0 0 0-2.215.248q-.024.006-.065.008-.92.077-1.849.127c-.318.022-.647-.022-.949.108-.092.043-.216.027-.323.032-.976.043-1.957.113-2.916.356-.097.024-.21.016-.318.022-.253.035-.501.065-.76.092-.145.019-.296.024-.447.032-.426.006-.857-.054-1.267.116-.059.03-.135.022-.194.016-.706-.062-1.386.153-2.092.17-.755.016-1.52.172-2.28.232-.534.03-1.051.183-1.58.221-.469.048-.949.027-1.418.022-.663-.027-1.31.108-1.957.221M30.131 40.196l.033-.067q.054-.127.08-.226l.018-.051a.7.7 0 0 1 .062-.144c.374-.714.619-1.522.751-2.468.039-.306.038-.614.033-.906-.012-.449-.288-.834-.81-1.143l-.106-.064a1 1 0 0 1-.136-.084c-.38-.369-.872-.62-1.349-.863l-.098-.049q-.188-.09-.369-.182a1.5 1.5 0 0 0-.447-.153 9 9 0 0 1-.3-.051l-.306-.055c-.476-.088-.97-.178-1.442-.224a69 69 0 0 0-2.262-.198 73 73 0 0 1-.933-.076q.113-.042.23-.092c.48-.218 1.093-.313 1.678-.404.246-.027.504-.047.84-.058.146-.006.305 0 .444.01.248.025.518.045.772 0 .35-.033.604-.162.733-.37q.114-.18.182-.396c.203-.528.151-.642-.238-1.082l-.042-.068a3.15 3.15 0 0 0-1.21-.877l-.436-.173q-.29-.115-.566-.223l-.518-.221-.083-.029-.079.031c-.418.094-.694.276-.983.486-.379.269-.708.484-1.077.656-.516.228-.977.452-1.369.666-.582.319-1.165.645-1.728.968a74 74 0 0 0-.936.528c-.165.095-.33.184-.516.276a.9.9 0 0 1-.291.07q-.172.01-.348.018-.18.007-.354.018l-.082.005c-.312.015-.634.031-.94.061-1.252.119-2.27.238-3.201.373-2.859.42-5.197 1.167-7.132 2.275l-.307.155a3.4 3.4 0 0 0-.385.215l-.18.138q-.16.121-.313.242-.266.215-.544.41-.105.069-.215.145l-.098.067c-.413.26-.842.544-1.149.91-.406.192-.671.457-.907.693-.527.526-.869 1.083-1.048 1.703-.199.676.044 1.333.747 2.009.228.211.486.444.819.705a5.6 5.6 0 0 0 2.141 1.075l.12.039c.074.016.136.031.194.05q-.079.115-.17.223c-.726.83-1.382 1.773-2.003 2.883a11.4 11.4 0 0 0-.877 2.038c-.393 1.22-.436 2.269-.136 3.303.187.627.399 1.238.915 1.819a8.9 8.9 0 0 0 1.679 1.477c1.22.856 2.572 1.289 4.021 1.289h-.003c.177-.001.365-.004.548-.018.794-.065 1.438-.21 1.966-.442.257-.111.527-.211.795-.312l.092-.035c.458-.172.87-.33 1.264-.519a36 36 0 0 0 1.857-.959l.173-.095q.245-.136.492-.266c.411-.222.765-.414 1.095-.601l.167-.097c.483-.276.98-.563 1.463-.859.317-.198.636-.409.939-.614l.109-.071c.18-.119.36-.238.557-.362.098-.067.203-.128.307-.192l.313-.189a7 7 0 0 0 .636-.417c.208-.146.429-.297.641-.441a11 11 0 0 0 1.115-.824c.266-.246.57-.484.84-.691l.263-.213q.232-.186.462-.376c.431-.384.884-.796 1.284-1.212.167-.182.341-.355.515-.528l.273-.272c.234-.235.474-.477.697-.719a20 20 0 0 0 1.287-1.583 22 22 0 0 0 1.714-2.774c.203-.38.416-.812.666-1.351m-27.489 1.4c-.288-.327-.613-.748-.58-1.117.055-.641.217-1.077.521-1.412.732-.803 1.715-1.495 2.914-2.054.141-.058.271-.129.398-.198l.144-.078c.094-.055.188-.103.286-.153l.151-.083c.362-.187.703-.363 1.118-.454l.042-.016h.003a.5.5 0 0 0 .147-.051c.546-.261 1.238-.415 1.944-.571.23-.046.459-.093.689-.15.657-.152 1.36-.271 2.041-.385l.176-.03c.191-.032.383-.066.589-.093.3-.063.626-.1.942-.133q.127-.02.259-.031l.112-.013a3 3 0 0 1 .468-.045q-.423.293-.847.581l-.432.298c-.566.39-1.151.792-1.69 1.212-1.484 1.147-2.702 2.13-3.812 3.203l-.223.209c-.773.75-1.571 1.525-2.281 2.337-.062.074-.132.149-.436.129a6 6 0 0 0-.418-.02 4 4 0 0 1-.686-.064h-.002c-.65-.126-1.166-.402-1.537-.818m25.973-1.105c-.416.853-1.007 1.676-1.534 2.408q-.109.163-.218.313l-.141.2c-.294.414-.662.812-1.051 1.222l-.159.181c-.403.427-.789.808-1.213 1.199a75 75 0 0 1-1.94 1.759l-.094.08a45 45 0 0 1-2.202 1.788c-.322.245-.693.501-1.14.787l-.801.548c-.5.334-1.018.681-1.546.996-.501.296-1.049.582-1.567.845q-.158.08-.32.165l-.242.126c-.235.127-.473.253-.706.375a53 53 0 0 1-2.17 1.114c-.56.28-1.184.523-1.826.768l-.103.04c-.42.158-.923.277-1.536.363-.959.138-1.899-.074-2.8-.634a5.1 5.1 0 0 1-1.172-1.027c-.441-.5-.67-1.029-.853-1.526a1.6 1.6 0 0 1-.079-.85 3 3 0 0 0 .064-.321c.044-.246.085-.477.23-.69l.061-.133-.047-.074.005.002c-.001-.078.044-.158.141-.322.066-.114.147-.25.174-.41.183-.179.192-.394.198-.542l-.207-.008.215-.071c.004-.096.066-.193.186-.282.14-.109.377-.298.379-.588.224-.121.283-.323.318-.443.011-.034.023-.072.044-.11a.6.6 0 0 1 .112-.111c.113-.095.23-.202.263-.315.012-.013.056-.041.076-.055.248-.137.354-.312.306-.478.009-.012.043-.045.045-.049a.7.7 0 0 0 .2-.211c.053-.095.097-.135.182-.162a.67.67 0 0 0 .388-.36c.123-.252.258-.446.444-.634l.064-.067c.092-.102.169-.175.236-.237l.1-.055c.074-.056.2-.15.218-.302.007-.043.086-.072.448-.088a13 13 0 0 0 1.251-.079c.185-.015.359-.048.524-.083l.053-.012.207-.045q.049-.005.098-.014a1 1 0 0 1 .089-.013l.086-.016c.141-.026.274-.051.406-.051.607-.012 1.102-.111 1.543-.316l.083-.067.03-.075c.015-.039.033-.075.056-.123.042-.094.075-.173.095-.259a.8.8 0 0 0-.1-.634c-.184-.303-.553-.535-1.021-.641a7 7 0 0 0-1.052-.123 7 7 0 0 1-.321-.024l.041-.047a.6.6 0 0 1 .115-.108c.366-.235.68-.555.954-.971.036-.05.068-.077.097-.104.246-.16.434-.34.634-.539l.27-.252c.186-.182.406-.388.657-.538.201-.116.298-.274.369-.389s.107-.166.186-.201c.147-.065.249-.15.326-.217a1 1 0 0 0 .089-.07l.047-.038c.157-.068.251-.175.263-.285.026-.126.159-.218.386-.361l.083-.058q.107-.072.209-.151l.071-.063c.048-.041.094-.08.127-.113l.077-.067c.16-.14.313-.272.51-.376.131-.079.255-.168.379-.257.174-.137.322-.247.536-.313a.5.5 0 0 0 .245-.168c.17-.239.523-.404.78-.507.124-.014.226-.074.274-.154.097-.131.28-.229.483-.338l.073-.042q.155-.09.306-.19c.337-.25.752-.484 1.314-.744a.5.5 0 0 1 .263-.041q.198.018.397.033l.265.02c.9.066 1.917.14 2.9.365.906.204 1.899.475 3.129.856.755.224 1.397.648 1.938 1.027.141.1.257.217.312.315.229.408.474.937.33 1.4-.21.706-.538 1.393-.854 2.056zm38.623-9.812.023-.005c.354-.085.946-.229 1.199-.65a.85.85 0 0 0 .079-.671l-.067-.111c-.33-.369-.771-.592-1.363-.683a1 1 0 0 1-.185-.041l-.348-.07c-.427-.07-.865-.144-1.33-.086l-.062.008c-.409.05-.83.102-1.245.214-.467.131-1.05.293-1.264.747a.7.7 0 0 1-.156.07c-.147.062-.388.163-.477.408l-.038.027c-.119.074-.239.157-.392.262l-.133.086c-.158.102-.315.204-.462.31l-.095.066q-.09.062-.188.128l-.074.051c-.309.211-.628.429-.898.702-.062.062-.14.116-.223.175l-.047.035-.056.042q-.042.031-.082.064a2 2 0 0 1-.207.136l-.051.036c-.177.122-.377.26-.471.455-.067.115-.199.209-.35.307-.023.017-.05.036-.108.075a4 4 0 0 0-.574.477 24 24 0 0 0-.695.722c-.168.169-.333.337-.506.521a.8.8 0 0 1-.139.083c-.191.093-.449.255-.488.575-.387.316-.687.671-.978 1.013l-.198.239a1 1 0 0 0-.109.173l-.05.089a.6.6 0 0 1-.094.164c-.299.283-.548.587-.79.881l-.042.051q-.195.259-.418.51c-.327.371-.705.816-1.028 1.304a5 5 0 0 1-.453.579l-.159.186a7 7 0 0 0-.295.357c-.212.271-.429.586-.665.965-.096.155-.182.316-.27.478l-.067.123a9 9 0 0 1-.341.597c-.539.883-.984 1.793-1.47 2.807l-.168.348c-.069.166-.15.327-.23.492l-.023.047q-.05.105-.109.209l-.079.144a9 9 0 0 0-.285.559 52 52 0 0 0-.715 1.667c-.178.435-.346.889-.51 1.38-.125.349-.242.695-.36 1.052l-.224.653a.4.4 0 0 1-.141-.194l-.079-.207c-.111-.283-.215-.549-.27-.822a14 14 0 0 1-.215-1.536 26 26 0 0 1-.127-1.626 20 20 0 0 1-.017-1.561c.009-.205.038-.417.067-.621l.021-.157a9 9 0 0 0 .097-1.039l.006-.092c.015-.234.03-.464.062-.703.084-.748.182-1.503.279-2.248l.177-1.362.006-.014a.5.5 0 0 0 .062-.133c.056-.184.128-.374.207-.56.158-.372.336-.793.312-1.266a.5.5 0 0 1 .03-.21c.042-.088.094-.172.15-.261l.029-.045h.002c.019-.031.039-.062.077-.129l.065-.119-.094-.125.032-.038a.8.8 0 0 0 .127-.221l.039-.127c.19-.627.395-1.294.622-1.938.113-.294.247-.586.376-.859l.147-.322c.07-.15.135-.279.206-.404.148-.223.122-.512-.07-.776-.243-.318-.696-.539-1.155-.565-1.295-.075-2.175.143-2.761.678l-.092.082a7 7 0 0 1-.23.204q-.075.057-.148.118l-.097.079c-.686.608-1.144 1.107-1.483 1.615-.102.149-.238.29-.382.441l-.451.449c-.188.193-.381.393-.595.565-.187.143-.283.317-.369.469l.178.099v.001l-.207-.047c-.076.131-.143.245-.273.326l-.176.126.027.084a.6.6 0 0 0-.3.245c-.121.231-.312.457-.509.692l-.083.098a5 5 0 0 0-.195.239c-.221.296-.343.526-.407.771q-.038.138-.268.245a1.3 1.3 0 0 0-.668.719 1.3 1.3 0 0 1-.289.472c-.112.103-.246.245-.276.438-.044.216-.218.395-.35.513a2.3 2.3 0 0 0-.554.771c-.124.29-.322.564-.522.84-.191.251-.408.546-.559.862-.165.353-.391.704-.591 1.019q-.062.1-.126.2a6 6 0 0 0-.179.289c-.635 1.078-1.362 2.339-1.94 3.677-.394.906-.891 1.801-1.392 2.707l-.097.181c-.221.398-.442.676-.863.837a3.2 3.2 0 0 0-.604.351l-.092.067c-.255.179-.365.424-.303.672.073.293.382.535.842.664.388.114.773.17 1.177.17v.006q.165.001.331-.014c.544-.041 1.083-.152 1.748-.359.578-.176.924-.484 1.057-.955.035-.159.079-.307.13-.456l.018-.057c.105-.356.212-.724.262-1.112.022-.14.056-.285.095-.45.088-.411.178-.835.03-1.317l.064-.243c.044-.199.091-.4.136-.584q.024-.08.042-.159l.017-.07c.037-.171.07-.334.135-.463.142-.264.249-.53.369-.825l.061-.151c.06-.155.121-.311.192-.462.139-.289.27-.58.409-.908.121-.283.245-.573.383-.865.128-.262.276-.515.435-.783l.267-.443a33 33 0 0 1 3.66-4.937c1.192-1.35 2.666-2.636 3.968-3.772l.038-.033a3 3 0 0 1-.094.529c-.044.178-.044.348-.044.512v.062l.002.002c.002.154.005.288-.045.411a1.84 1.84 0 0 0-.092.91c.023.125.009.248-.012.429-.018.129-.039.263-.03.413.009.222 0 .478-.142.701a.36.36 0 0 0-.035.226l-.076.557q-.027.19-.05.378l-.033.282c-.041.34-.082.677-.13 1.056a.43.43 0 0 0 .077.297c0 .01-.012.04-.038.107a2 2 0 0 0-.051.157l-.017.055c-.013.053-.033.124-.03.21q.034.621-.12 1.186c-.016.071-.046.204.002.325.065.218.024.417-.023.644-.026.118-.053.25-.062.376a2 2 0 0 1-.03.235l-.038.349c-.004.09.003.169.017.266a.8.8 0 0 1 .011.168q-.021.222-.041.446l-.029.333c-.033.311-.066.621-.083.925-.027.286-.03.61-.012.937.004.06-.017.143-.044.251-.055.2-.121.449.015.722l-.018.062a.5.5 0 0 0-.021.154q.003.106 0 .209v.133c0 .295 0 .601.086.915.128.454.315.821.597 1.159q.25.285.307.45c.127.393.484.616.872.859.552.335 1.225.325 1.604-.027q.275-.262.389-.548c.082-.203.157-.415.224-.625.047-.155.099-.318.161-.479q.535-1.383 1.075-2.761l.065-.176c.117-.298.261-.669.435-.999.321-.581.658-1.167.993-1.737l.318-.539c.04-.063.082-.134.144-.211.061-.092.115-.176.17-.265q.271-.475.547-.943l.313-.544c.027-.048.054-.087.083-.128l.292-.44c.341-.522.657-.988 1.063-1.406.358-.36.71-.735 1.055-1.104l.25-.267q.252-.275.504-.547l.592-.62c1.126-1.198 2.405-2.555 3.878-3.721 2.651-2.105 4.892-3.593 7.273-4.826.285-.154.598-.27.96-.353Zm87.36 7.84a9 9 0 0 0-.781-.17c-.783-.137-1.547-.076-2.259-.005-.745.07-1.479.177-2.188.28q-.42.062-.839.12l-.118.018c-.129.019-.247.037-.376.019l.027-.239c.018-.172.036-.343.062-.51.146-.893.316-2.077.316-3.323.004-.627-.144-1.275-.456-1.981-.158-.358-.444-.876-1.095-1.234-.81-.459-1.638-.663-2.424-.613l-.185.011a5 5 0 0 0-.469.043l-.294.036c-.38.046-.775.093-1.113.21-.81.268-1.373.593-1.773 1.022a60 60 0 0 1-.492.515c-.402.419-.817.853-1.205 1.3-.501.574-.981 1.161-1.464 1.749q-.337.414-.678.826l-.724.864c-.571.682-1.143 1.364-1.705 2.057-.546.677-1.079 1.368-1.614 2.059l-.532.688a.54.54 0 0 1-.189.158l-.333.145c-.442.194-.9.394-1.372.565-1.109.415-2.366.885-3.5 1.466l-.815.417c-.468.239-.938.479-1.401.721a9 9 0 0 0-.768.466l-.07.045c-.132.086-.412.336-.132.791.174.278.439.445.812.51.553.087 1.037 0 1.478-.267l.601-.342c.548-.311 1.093-.62 1.623-.946.654-.417 1.414-.739 2.185-1.046l-.112.172-.189.291c-1.084 1.592-1.944 3.279-2.571 4.57l-.086.176c-.242.507-.472.984-.934 1.347-.047.04-.078.087-.123.154a.58.58 0 0 0-.051.703c.038.071.065.143.091.212l.074.18.071.034c.603.29 1.203.438 1.784.582l.32.08q.166.037.294.037a.6.6 0 0 0 .189-.028 3 3 0 0 1 .433-.098c.406-.072.906-.16 1.057-.632q.005 0 .017-.01a.5.5 0 0 0 .126-.095l.104-.111c.211-.223.43-.455.612-.719q.09-.136.17-.277c.133-.231.25-.431.498-.602a.46.46 0 0 0 .141-.216c.162-.433.425-.822.704-1.233.164-.242.334-.491.479-.749.072-.127.13-.258.189-.39.071-.165.141-.321.236-.458.597-.837 1.033-1.754 1.454-2.641l.144-.303c.279-.599.567-1.264.909-2.103.041-.114.116-.229.376-.296q.308-.084.609-.175c.324-.096.66-.196 1.007-.271 1.093-.252 2.205-.487 3.318-.721l.295-.063a547 547 0 0 1 3.552-.72c.094-.022.164-.042.253-.017-.003.152-.044.304-.086.463-.04.153-.083.312-.098.486a6 6 0 0 1-.136.776q-.042.19-.082.388c-.043.244-.082.496-.12.747l-.059.381q-.057.293-.12.584-.065.294-.123.593-.102.564-.22 1.119c-.069.311-.146.624-.22.934l-.056.226c-.085.374-.176.739-.268 1.113q-.065.276-.126.551a42 42 0 0 1-.233 1.006c-.061.245-.12.488-.167.734a4 4 0 0 1-.092.366c-.076.261-.153.532-.124.849l.015.17.239.026c.088.012.248.029.318-.094q.079-.099.164-.195c.179-.206.362-.419.465-.683a64 64 0 0 0 1.093-3.059c.197-.599.368-1.213.532-1.807l.065-.233c.259-.905.517-1.81.756-2.723.121-.48.221-.979.316-1.461q.062-.312.127-.627l.027-.135c.062-.308.124-.625.236-.912l.677-.131c.471-.092.936-.184 1.402-.265l.58-.098c.942-.164 1.831-.317 2.832-.322.189 0 .385.016.58.033q.154.014.3.023c.356.027.607-.076.719-.308l.003-.008a.37.37 0 0 0-.015-.306.44.44 0 0 0-.28-.236Zm-8.094-2.892-.068.64c-.098.929-.198 1.888-.433 2.843a170 170 0 0 0-8.033 1.579 1 1 0 0 1 .056-.086l.265-.401c.292-.442.584-.884.89-1.328.015-.022.05-.052.085-.082q.048-.04.095-.088.042-.042.091-.082c.09-.076.204-.171.26-.313.139-.362.398-.67.671-.996.225-.268.46-.547.628-.865.103-.193.257-.368.421-.554.145-.165.295-.335.415-.527.241-.396.568-.784 1.015-1.196l.053-.055a1 1 0 0 0 .204-.261c.072-.186.247-.318.457-.478.135-.091.245-.195.353-.295a2.1 2.1 0 0 1 .7-.467.9.9 0 0 1 .388-.083h-.001c.261.001.566.095.945.289.1.048.208.19.247.307q.181.406.241.815c.099.65.116 1.201.055 1.684m58.437 9.487h-.005c-1.324.269-1.71.374-2.858.685l-.25.067c-2.629.699-5.192 1.758-7.573 2.798l-.454.201c-1.034.458-2.103.933-3.077 1.495-.005.002-.445.282-1.045.351-.165.018-.657-.109-.949-.373-.136-.123-.205-.253-.203-.38 0-.017.022-.065.036-.098a.7.7 0 0 0 .08-.343c-.032-.317.114-.579.271-.861l.124-.242c.217-.421.434-.84.638-1.269.136-.29.295-.597.536-.868q.493-.572.819-1.171c.383-.729.887-1.414 1.37-2.049q.179-.23.353-.46c.286-.377.581-.765.922-1.121.519-.541.909-1.007 1.222-1.464l.044-.063c.225-.318.437-.618.76-.843a.43.43 0 0 0 .138-.154l.038-.051q.14-.154.276-.309c.205-.233.398-.453.621-.657.181-.175.377-.34.572-.504.228-.193.465-.393.675-.605.358-.362.702-.73 1.046-1.098.297-.318.594-.636.901-.949l.056-.058a46 46 0 0 1 1.76-1.733c.373-.346.766-.683 1.16-1.02q.328-.279.654-.564c.237-.213.485-.445.706-.695.208-.233.276-.554.191-.905-.142-.586-.671-1.147-1.319-1.398-.239-.087-.468-.086-.672.01a2 2 0 0 0-.38.26l-.094.079c-.265.223-.531.446-.79.678l-1.022.924q-1.244 1.118-2.474 2.246-.555.524-1.102 1.058-.414.403-.833.804-.291.278-.588.554c-.358.335-.727.68-1.068 1.033-1.924 1.982-3.578 3.882-5.056 5.81a32 32 0 0 0-2.176 3.207c-.191.323-.336.665-.477.997-.104.245-.209.49-.33.725-.139.263-.188.544-.233.815-.037.218-.071.424-.129.57a.29.29 0 0 0-.039.233c.006.801.322 1.611.937 2.405.338.44.695.783 1.092 1.046.44.306.888.46 1.336.46v.005q.315 0 .629-.101c.264-.082.506-.207.73-.327q.404-.215.798-.434c.4-.22.798-.439 1.207-.644 2.226-1.094 4.096-1.933 5.88-2.639l.215-.083a69 69 0 0 1 2.206-.821c1.019-.361 2.096-.642 3.395-.953.55-.126.62-.138 1.033-.208l.27-.046c.456-.087.461-.339.441-.443-.062-.333-.648-.566-.942-.512m36.902-14.972c-.283-.375-.712-.438-1.095-.467-.295-.02-.587-.028-.881-.037q-.31-.008-.631-.023c-1.713-.054-3.206-.007-4.563.145-1.936.231-3.82.498-5.601.794-.263.045-.524.103-.784.162q-.228.053-.459.101-.968.21-1.947.393-.114.023-.223.054a1.7 1.7 0 0 1-.389.064l-.024-.02c-.147-.682-.665-1.232-1.165-1.764l-.182-.191c-.479-.499-.759-.726-1.71-.475-.664.164-.75.51-.706.767.048.344-.131.606-.335.904-.416.578-.885 1.258-1.211 2.003-.1.224-.283.369-.615.488-.805.293-1.681.639-2.758 1.087-.307.127-.604.268-.896.409-.222.106-.442.212-.669.31l-.056.026c-.294.134-.571.26-.919.269-.146 0-.268.065-.406.139q-.12.074-.236.151c-.096.063-.192.126-.303.192q-.291.194-.292.507c0 .477.348.821.949.941.266.059.543.128.819.201q.13.026.257.056.18.044.356.074c.564.081 1.144.167 1.707.081l-.014.023q-.18.283-.36.561c-.229.35-.454.699-.668 1.056-.187.316-.385.628-.585.941-.446.703-.908 1.429-1.24 2.204-.096.208-.292.361-.631.497-.998.393-2.156.878-3.204 1.486-.038.024-.087.042-.135.061l-.085.036c-.394.208-1.127.596-1.557.865l-.073.047a4 4 0 0 0-.282.19l-.474.372h.1a.48.48 0 0 0-.068.482c.088.226.322.398.595.438.165.024.357.015.53-.034.119-.037.23-.093.336-.148l.124-.063a13.5 13.5 0 0 1 1.982-.953c.394-.145.838-.202 1.271-.259.107-.016.178-.01.239.023q-.012.037-.02.073-.09.363-.192.728c-.117.429-.238.873-.321 1.312-.241 1.185-.248 2.262-.027 3.291.244 1.171 1.089 2.113 2.585 2.882.259.13.906.206 1.251.206l.002.004c.09 0 .16-.005.198-.016a16.5 16.5 0 0 0 2.143-.85q.401-.188.795-.383c.526-.259 1.07-.526 1.645-.744q.376-.143.756-.282c.732-.271 1.487-.549 2.199-.871a24 24 0 0 1 1.961-.802c.937-.33 1.814-.6 2.68-.828 1.891-.507 3.831-.993 5.706-1.463l.454-.114c1.03-.264 2.132-.446 3.197-.621l.292-.048c.708-.125 1.3-.236 1.885-.368.292-.059.53-.19.681-.291.262-.181.494-.387.688-.566a1.7 1.7 0 0 0 .251-.305.44.44 0 0 0 .041-.454c-.087-.17-.279-.274-.535-.285l-.136-.002c-.333-.003-.686-.012-1.004.033-1.464.197-2.729.453-3.863.783q-2.13.617-4.26 1.224l-.486.14c-.586.168-1.19.341-1.776.541-1.701.573-3.818 1.285-5.664 2.206a21 21 0 0 1-1.361.602c-.381.158-.763.317-1.128.489-.559.256-1.105.496-1.649.736-.693.305-1.385.61-2.1.944-.556.264-1.048.403-1.545.436h-.011c-.199 0-1.098-.191-1.386-.467l-.109-.099c-.371-.337-.793-.72-.822-1.078a6.6 6.6 0 0 1 .021-1.614c.064-.433.191-.902.403-1.476.224-.604.438-1.213.65-1.822q.29-.845.598-1.687c.029-.083.164-.18.291-.272.067-.047.173-.082.274-.117l.111-.038a50 50 0 0 1 4.616-1.484c.097-.026.19-.063.282-.102.112-.047.218-.092.327-.103.584-.073 1.134-.215 1.664-.353.299-.078.596-.155.9-.22l.409-.095c.343-.081.686-.161 1.043-.228.944-.197 1.896-.387 2.847-.576l.059-.011c.419-.079.819-.165 1.269-.142.526.02 1.036-.103 1.578-.385.269-.134.433-.3.498-.507q.1-.314-.118-.713a1.6 1.6 0 0 0-.21-.32 1.96 1.96 0 0 0-1.348-.732c-.391-.035-.788-.102-1.139-.161l-.391-.064-.038.008q-.29.065-.55.129c-.257.062-.5.12-.751.167-1.465.29-2.8.628-4.086 1.033a78 78 0 0 0-4.626 1.635c-.357.147-.749.266-1.128.382l-.232.071-.015.005a6.1 6.1 0 0 1 .725-1.517q.189-.27.388-.531c.288-.382.585-.776.789-1.226a.6.6 0 0 1 .156-.163l.086-.076a5 5 0 0 1 .257-.232c.191-.167.39-.34.538-.55.196-.275.449-.531.694-.779q.163-.164.315-.325.21-.214.613-.403l.321-.142c.611-.269 1.241-.548 1.875-.794.734-.282 1.472-.548 2.209-.815q.672-.242 1.345-.491c.56-.218 1.14-.358 1.635-.466l.312-.069c.396-.087.808-.178 1.205-.297a10.5 10.5 0 0 1 1.592-.381 61 61 0 0 0 1.417-.254c.684-.128 1.39-.259 2.097-.357 1.11-.147 2.258-.264 3.368-.377l.759-.077c.348-.033.724-.053 1.125.033.657.154.926.016 1.152-.579l.041-.107zm-84.257 24.725h-.005zm27.653-22.876a3.4 3.4 0 0 0-1.298-.569 8.5 8.5 0 0 0-1.705-.198 26 26 0 0 0-3.494.168c-1.85.22-4.003.506-6.069.973l.074-.036c.224-.109.451-.219.666-.326.022-.007.054-.01.086-.014l.091-.014c.4-.082.638-.166.742-.376.103-.204.033-.437-.121-.772a2 2 0 0 0-.157-.273l-.033-.053c-.213-.382-.591-.673-.954-.954q-.146-.11-.291-.229a5.6 5.6 0 0 0-.84-.538c-.523-.265-1.038-.295-1.354-.076-.212.148-.309.384-.274.666.011.078.038.166.079.293a.44.44 0 0 1-.062.432l-.1.141c-.144.202-.279.393-.456.566-.81.806-1.643 1.61-2.477 2.416l-.407.394c-.179.169-.412.289-.715.368-.913.251-1.83.505-2.733.775-1.987.593-3.648 1.187-5.082 1.816-.551.247-1.046.544-1.525.831l-.132.079c-.17.105-.623.384-.376.909l.065.079q.105.078.209.16.163.13.339.254c.277.191.516.238.828.149.156-.048.317-.098.382-.227.082-.143.278-.228.485-.318l.162-.072.251-.117c.995-.462 2.025-.94 3.079-1.38.557-.24 1.151-.455 1.725-.662l.36-.131q-.723.731-1.44 1.484-.361.382-.728.763a53 53 0 0 0-1.687 1.815c-1.086 1.257-2.315 2.681-3.168 4.306a15.7 15.7 0 0 0-1.108 2.52c-.108.325-.147.662-.182 1.01-.016.177-.022.437.114.672.316.539.816.957 1.484 1.239.236.1.519.188.819.069l.097-.06.032-.09c.12-.337.244-.687.273-1.106.065-.917.306-1.747.721-2.475l.032-.061c.064-.121.138-.258.165-.412.119-.567.386-1.081.657-1.554.544-.981 1.23-2.124 2.176-3.168.3-.326.591-.656.883-.987.3-.341.6-.682.91-1.018l.135-.142c.271-.283.551-.575.737-.928.053-.096.164-.196.323-.291.44-.276.767-.63 1.087-.995q.102-.113.2-.231c.14-.165.285-.336.456-.476.41-.348.867-.671 1.308-.981.168-.115.352-.227.566-.279l.544-.143c1.907-.503 3.879-1.022 5.926-1.398 1.875-.333 3.91-.658 6.082-.787.551-.03 1.001-.036 1.422-.019.283.01.648.04 1.039.176-.037.065-.112.123-.238.21l-.059.042c-1.288.882-2.329 1.524-3.378 2.081-.901.483-1.877.996-2.907 1.47a49 49 0 0 1-4.317 1.723l-.869.304c-1.548.541-3.149 1.101-4.837 1.518-.81.197-1.319.649-1.513 1.339-.074.247-.003.471.214.681.273.272.55.544.833.798.242.232.545.304.831.206a2 2 0 0 0 .209-.101c.085-.045.157-.084.23-.095a10.7 10.7 0 0 0 2.553-.655c.209-.087.431-.158.654-.229l.244-.08c1.321-.447 2.767-.816 4.419-1.128 1.117-.209 2.605-.458 4.19-.522.306-.013.614-.009.94.124-.032.093-.113.166-.239.274l-.082.072c-1.118 1.019-2.425 1.844-3.671 2.583-1.341.794-2.825 1.537-4.535 2.274-.757.326-1.534.637-2.312.948l-.75.301c-.462.182-.916.353-1.395.52q-.871.306-1.751.607l-1.819.623c-.677.228-1.378.464-2.044.717-1.204.441-2.17.823-3.041 1.203a12 12 0 0 0-3.197 2c-.315.274-.471.588-.462.934.009.467.322.949.928 1.432l.059.033c.053.019.1.025.118.027.104.02.288.054.495.055.362 0 .795-.108 1.004-.587.085-.187.327-.36.574-.525.341-.245.723-.465 1.092-.678l.186-.107c.421-.25.845-.49 1.271-.731l.394-.223c.32-.196.639-.382.983-.581l.409-.228q.325-.184.654-.357a3 3 0 0 1 .257-.108c.077-.031.154-.06.218-.089l.159-.061c.142-.054.283-.107.413-.169l.6-.26c.412-.179.823-.358 1.239-.528.451-.194.909-.382 1.366-.571a88 88 0 0 0 1.372-.572l.419-.179c1.033-.443 2.102-.901 3.133-1.379a89 89 0 0 0 3.431-1.67c.911-.472 1.799-.988 2.659-1.487l.326-.189c.68-.394 1.328-.814 1.987-1.245.521-.338.915-.746 1.168-1.212l.003-.004q.301-.582.164-1.222c-.044-.187-.206-.371-.354-.477-.887-.565-1.752-.859-2.574-.874a12 12 0 0 0-2.064.123c-.944.139-1.867.299-2.791.458l-.933.161q.689-.296 1.378-.588.696-.294 1.389-.592 1.275-.574 2.546-1.149c1.66-.756 3.147-1.654 4.257-2.352.341-.216.645-.471.939-.718q.184-.156.374-.31c.319-.261.328-.637.336-.94l.005-.144c0-.191-.198-.41-.333-.512M91.194 53.822a3.68 3.68 0 0 0 .481-.06l.101-.011a5.8 5.8 0 0 0 1.41-.415c.8-.34 1.625-.742 2.599-1.264a82 82 0 0 0 2.611-1.492c.785-.466 1.692-1.019 2.52-1.688a351 351 0 0 0 3.036-2.475.9.9 0 0 0 .21-.249c.017-.025.029-.048.029-.048l-.002.002c.164-.195.064-.376-.006-.504l-.194-.217-.209.109a1.3 1.3 0 0 0-.22.141 163 163 0 0 0-2.152 1.637c-1.003.768-1.728 1.27-2.429 1.68-.502.303-1.01.593-1.511.86-.95.511-1.888 1.015-2.8 1.484-.52.275-1.082.516-1.645.758l-.121.051c-.084.036-.165.072-.291.125-.017.011-.033.016-.05.023l-.055.023c-.157.067-.321.137-.507.157l-.058.005h-.003q.002-.157.015-.309l.012-.183a.3.3 0 0 0 .008-.168 4 4 0 0 0-.127-.488 1 1 0 0 1 .133-.082l.045-.029a.7.7 0 0 0 .227-.314l.112-.326c.039-.104.189-.219.383-.302l.103-.034c.321-.125.653-.256.966-.397a25 25 0 0 0 2.932-1.499c.547-.343 1.08-.689 1.61-1.035l.083-.055c.403-.268.722-.62 1.007-1.108l.029-.09a.37.37 0 0 0-.021-.196 12 12 0 0 0-.362-.616.64.64 0 0 0-.373-.263 2 2 0 0 0-.351-.08c-.077-.017-.154-.025-.227-.033l-.079-.008a2 2 0 0 1-.274-.034 5.4 5.4 0 0 0-1.381-.03c-.435.056-.818.119-1.204.197-.839.171-1.602.416-2.312.653-.605.2-1.045.391-1.43.622-.61.369-1.093.752-1.475 1.168a4 4 0 0 0-.209.249l-.114.142a4 4 0 0 0-.144.183 5.3 5.3 0 0 0-.79 1.205l-.123.263q-.118.256-.245.514a5 5 0 0 1-.21.426.2.2 0 0 1-.055.07l-.161.126c-.08.065-.165.132-.244.192l-.221.154c-.13.09-.26.181-.401.272l-.433.306a65 65 0 0 0-1.03.724l-.002-.007a.8.8 0 0 1-.032-.289l.026-.156c.009-.064.018-.126.038-.24.055-.358.109-.72.182-1.075.12-.623.315-1.212.489-1.719q.11-.334.224-.666l.162-.479c.071-.196.137-.394.207-.597l.05-.148c.158-.462.258-.91.309-1.38a.3.3 0 0 0-.139-.288c-.036-.024-.066-.056-.095-.084a1 1 0 0 0-.051-.048 1.06 1.06 0 0 0-.592-.316 2.7 2.7 0 0 0-.525-.03 2.5 2.5 0 0 0-1.204.311 8 8 0 0 1-.403.23c-.554.297-1.115.605-1.669.912l-.162.087.315-.5a25 25 0 0 1 .44-.692c.173-.27.353-.55.556-.808.676-.879 1.378-1.758 2.056-2.611l.124-.161c.209-.261.364-.467.429-.738a.5.5 0 0 0-.015-.35c.103-.033.206-.067.321-.101.076-.028.174-.079.209-.145.046-.059.105-.107.173-.162l.088-.072c.097-.083.212-.202.224-.383.002-.032.011-.068.07-.097.118-.047.215-.111.265-.147a.5.5 0 0 0 .215-.319c.011-.061.029-.122.044-.167l.077-.101c.059-.05.118-.101.177-.128.194-.097.375-.234.554-.422a.47.47 0 0 1 .297-.144c.713-.092 1.177-.13 1.599-.13l.5-.011c.645-.023 1.377-.05 2.075-.014.685.034 1.383.072 1.963.104l.274.021c.203.015.375.028.536.045.398.044.787.123 1.152.232.247.079.493.125.744.112q.384-.01.73-.21c.22-.125.282-.339.159-.557a.66.66 0 0 0-.3-.27 3.2 3.2 0 0 0-.753-.268c-.3-.077-.61-.142-.863-.195l-.127-.027c-.493-.099-.882-.143-1.221-.123l-.403.006q-.57.025-1.152.03-.248.012-.497.02c-.249.008-.33.012-.498.02-.222.013-.445.019-.666.027l-.283.009q-.86.022-1.699.051l.042-.027c.355-.247.714-.492 1.065-.732.037-.028.044-.035.039-.033a.6.6 0 0 0 .221-.179.79.79 0 0 0-.003-.889c-.152-.224-.364-.418-.665-.61l-.051-.027c-.032-.015-.078-.037-.12-.042a2 2 0 0 1-.309-.084 1 1 0 0 0-.135-.029c-.237-.059-.543-.048-.906-.011-.136.01-.268.022-.374.055q-.097.023-.192.055l-.1.03c-.07.017-.139.033-.197.053-.156.044-.316.102-.442.226l-.323.313c-.632.624-1.197 1.307-1.744 1.967l-.265.323q-.09.112-.316.136-.248.03-.489.063c-.468.051-.95.105-1.422.173-1.026.151-1.855.29-2.605.419a110.283 110.283 0 0 0-4.688 1.005l-.585.134a1 1 0 0 1-.13.021l.053-.047.089-.083c.054-.05.11-.102.157-.152.178-.169.386-.364.61-.542.673-.524 1.404-1.027 2.131-1.527l.286-.19q.065-.042.123-.083l.369-.252c.316-.24.404-.566.239-.931l-.032-.06a1.4 1.4 0 0 1-.117-.276q-.092-.369-.469-.597a5 5 0 0 0-1.124-.544c-.529-.165-.976-.192-1.389-.092a.4.4 0 0 0-.238.148l-.424.577c-.312.423-.636.86-.996 1.256l-.17.181c-.244.271-.491.552-.727.828-.145.158-.289.323-.43.484l-.088.1-.139.176-.068.087a8 8 0 0 0-.565.771l-.114.161c-.234.337-.493.677-.756 1.021l-.089.117a6 6 0 0 1-.148.192c-.063.087-.186.16-.342.202a4 4 0 0 1-.223.058l-.183.041c-.651.152-1.107.288-1.519.456a7 7 0 0 1-.459.157c-.835.251-1.692.4-2.549.444a5 5 0 0 1-1.213-.073 6.5 6.5 0 0 0-1.313-.068.5.5 0 0 0-.435.223.42.42 0 0 0 .02.494c.076.093.183.184.286.245.058.035.135.078.212.116l.074.044c.356.175.748.353 1.184.454.203.062.414.074.674.045q.13-.033.28-.051c.273-.048.548-.09.836-.123l.197-.024c.427-.054.908-.116 1.405-.218l.067-.015c.423-.093.859-.189 1.283-.359a1 1 0 0 1 .135-.046l.135-.042a.1.1 0 0 1 .03-.007 4 4 0 0 1-.142.223q-.137.186-.271.376l-.244.341-1.794 2.527c-.064.085-.129.175-.212.292-.127.17-.258.345-.366.53l-.886 1.458q-.358.606-.719 1.195a3.4 3.4 0 0 0-.516 1.829c.003.38.073.726.138 1.021.074.343.21.611.427.844l.492.535c.321.34.75.554 1.313.655.226.04.559.084.883.017.207-.034.421-.084.657-.146.438-.108.766-.25 1.036-.454l-.087-.173.003-.002.132.153c.46-.221.94-.49 1.514-.847a48 48 0 0 0 3.73-2.671c.65-.522 1.337-1.082 1.967-1.673q.1-.094.21-.187a19 19 0 0 1-1.124 1.579l-.377.476c-.309.394-.623.794-.924 1.195-.279.395-.397.756-.376 1.132a.7.7 0 0 0 .176.438c.138.155.307.272.474.377l.3.181c.196.12.397.245.585.374.351.236.433.238.869.166a1 1 0 0 0 .627-.376c.037-.055.071-.106.138-.201.16-.261.271-.548.369-.815l.133-.336a.4.4 0 0 0 .008-.141c0-.071.006-.076.056-.118l.277-.229.065-.045a.6.6 0 0 0 .121-.082c.115-.1.237-.223.36-.35q.142-.14.279-.287l.654-.678a3.7 3.7 0 0 1 .495-.399l.047-.036c.268-.208.53-.425.787-.636l.606-.499.816-.656.568-.455c.03-.022.064-.048.097-.064l.061-.039c.055-.038.106-.073.164-.121.326-.3.706-.561 1.074-.813l.262-.175a8 8 0 0 0 .344-.227.4.4 0 0 1 .167-.055.3.3 0 0 1-.005.113l-.098.287q-.015.054-.033.106c-.155.441-.294.922-.435 1.51-.047.184-.091.365-.126.532l-.259 1.069a15 15 0 0 0-.318 1.549c-.095.688-.062 1.245.108 1.759.076.214.156.405.25.594.118.212.352.377.656.457.269.048.548 0 .769-.134.131-.085.263-.172.369-.265l.112-.096q.211-.175.415-.357l.141-.12q.25-.216.512-.435c.085-.076.186-.151.286-.214l.055-.03.077.245c.036.129.123.236.268.33.332.196.594.326.85.422l.074.029c.273.108.55.216.812.313a23 23 0 0 0 .507.198l.21.08q.21.082.379.081zm2.702-5.895q.108-.116.22-.228l.504-.516c.209-.21.39-.367.572-.491a.71.71 0 0 0 .31-.42 2 2 0 0 0 .134-.025l.061-.014a1 1 0 0 1 .204-.041c.218-.026.424-.085.566-.134q.039-.014.079-.025l.05-.014q.061-.019.123-.04c.062-.021.124-.044.2-.057.109-.026.218-.043.326-.06.086-.014.171-.027.23-.041.094-.003.318.02.4.048l.027.008c-.006.04-.032.081-.091.129l-.114.097c-.069.057-.137.115-.214.173q-.086.069-.182.141c-.462.374-1.01.678-1.61 1.002-.499.273-1.001.543-1.514.819q-.39.204-.794.424a1 1 0 0 0-.103.061 1 1 0 0 0-.074.042.2.2 0 0 1-.088.021h-.052q.411-.431.83-.859m-2.939-10.254v.002zm-9.064 4.225a223 223 0 0 1-1.617 1.987c-.173.209-.37.405-.544.578l-.112.112c-.071.065-.153.119-.277.205a3 3 0 0 0-.195.151c-.156.126-.302.244-.463.369-.463.373-.946.767-1.411 1.154a40 40 0 0 1-2.77 2.1c-.644.452-1.327.918-2.025 1.387-1.433.948-2.674 1.672-3.907 2.275a.9.9 0 0 1-.406.112c-.042 0-.082-.004-.103-.006-.078-.018-.092-.032-.101-.042-.258-.272-.32-.55-.191-.851.139-.338.292-.682.442-1.02q.131-.28.25-.558l.047-.108c.066-.154.099-.265.108-.367.023-.206.118-.393.297-.577a.6.6 0 0 0 .157-.297c.056-.263.182-.507.306-.736l.197-.373c.089-.175.188-.356.286-.538l.041-.076c.087-.152.179-.304.285-.459l.039-.066q.072-.113.127-.212l.111-.17q.173-.281.326-.565c.209-.419.495-.799.795-1.184l.371-.476q.406-.522.825-1.046a3 3 0 0 1 .2-.227l.133-.131c.159-.165.254-.334.292-.532v-.004c.208-.137.357-.306.508-.488q.082-.106.154-.186c.03-.031.053-.059.095-.114a.7.7 0 0 1 .365-.211 22 22 0 0 0 .475-.117c.293-.08.593-.16.903-.225l.174-.043a95 95 0 0 0 1.227-.31c.7-.156 1.41-.329 2.119-.502l.097-.024a48 48 0 0 1 2.368-.544c.503-.097 1.029-.191 1.595-.292l1.271-.201.053-.007c-.85.936-1.64 1.888-2.311 2.708z"/><path fill="#c30048" d="M71.482 97.356a2.5 2.5 0 0 1-.825-.563 2.7 2.7 0 0 1-.555-.852 2.8 2.8 0 0 1-.197-1.054q.002-.574.197-1.057c.137-.329.318-.601.547-.846.229-.238.506-.413.827-.553a2.65 2.65 0 0 1 1.043-.197q1.28 0 2.147 1.056v-2.999a7.4 7.4 0 0 0-1.167-.375 5.064 5.064 0 0 0-3.072.256 5 5 0 0 0-1.615 1.057 5.1 5.1 0 0 0-1.121 1.596c-.272.617-.412 1.307-.412 2.048s.14 1.425.426 2.056a5.3 5.3 0 0 0 1.116 1.625 5 5 0 0 0 1.612 1.062 5 5 0 0 0 1.919.383c.324 0 .658-.032.992-.094q.496-.103 1.076-.307l.248-.089v-2.973c-.636.688-1.353 1.019-2.159 1.019-.372 0-.712-.062-1.027-.199m19.114-3.566h-3.627v-3.728h-2.51v9.668h2.51v-3.994h3.627v3.994h2.511v-9.668h-2.511zm12.741 5.94h2.507v-9.668h-2.507zm19.881-3.76-4.642-5.908h-2.512v9.668h2.512v-5.913l4.642 5.913h2.495v-9.668h-2.495zm12.727 3.76h5.493v-2.137h-2.986v-1.658h2.819v-2.131h-2.819v-1.618h2.986v-2.124h-5.493zm20.802-7.188-.001-.001.002.001Zm-.975 1.289c-.2-.067-.41-.134-.62-.183a4 4 0 0 1-.561-.221 1.1 1.1 0 0 1-.404-.291.58.58 0 0 1-.156-.421c0-.24.108-.45.307-.601q.316-.23.787-.229c.264 0 .528.051.803.164.269.105.548.267.818.492l.996-1.969a6.6 6.6 0 0 0-1.499-.574 6.1 6.1 0 0 0-1.498-.21c-.512 0-.971.087-1.391.243-.415.151-.76.366-1.051.641a2.9 2.9 0 0 0-.663 1c-.156.396-.237.819-.237 1.299s.07.873.221 1.183c.156.315.345.569.593.787q.363.293.83.488c.319.114.631.238.96.34.275.092.502.172.696.256.188.072.35.156.463.242.124.1.205.194.259.299a.84.84 0 0 1 .081.383q0 .354-.307.636c-.199.183-.507.275-.911.275-.361 0-.722-.073-1.089-.229a4.8 4.8 0 0 1-1.116-.752L151 98.903c1.051.72 2.183 1.089 3.396 1.089.599 0 1.122-.076 1.585-.232.469-.161.868-.38 1.181-.668.323-.286.571-.628.733-1.03.167-.404.248-.857.248-1.35q.002-1.1-.571-1.776c-.377-.466-.975-.83-1.8-1.105m17.648-1.645v-2.124h-5.503v9.668h5.503v-2.137h-2.986v-1.658h2.814v-2.131h-2.814v-1.618z"/></svg>