<svg xmlns="http://www.w3.org/2000/svg" width="476.1" height="58.5" viewBox="0 0 476.1 58.5"><g fill="#fff"><path d="M0 40.8c1.5 3.9 3.9 7.5 7 10.7 3.1 3.1 6.8 5.5 10.7 7l10.4-10.4c-4.5-.2-8.8-2.1-12.2-5.5s-5.2-7.8-5.5-12.2z"/><path d="M58.3 40.8c-1.5 3.9-3.9 7.5-7 10.7-3.1 3.1-6.8 5.5-10.7 7L30.2 48.1c4.5-.2 8.8-2.1 12.2-5.5s5.2-7.8 5.5-12.2z"/><path d="M40.6.2c3.9 1.5 7.5 3.9 10.7 7 3.1 3.1 5.5 6.8 7 10.7L47.9 28.3c-.2-4.5-2.1-8.8-5.5-12.2s-7.8-5.2-12.2-5.5l1.7-1.7z"/><path d="M17.7.2c-3.9 1.5-7.5 3.9-10.7 7-3.1 3.1-5.5 6.8-7 10.7l10.4 10.4c.2-4.5 2.1-8.8 5.5-12.2s7.8-5.2 12.2-5.5z"/></g><g fill="#fff"><path d="M172.4 16.8c2.8-.4 5.5-1.1 8.2-1.2 6.5-.2 11.8 2 15.4 7.8 1.3 2.1 2.1 4.5 2.1 7 .1 4.2.2 8.5 0 12.7-.4 8.5-6.6 14.4-15.4 15-6.2.4-12.2-.6-18.1-2.6-1-.3-1.2-1-1.2-1.9V3.4c0-2.3.1-2.4 2.3-2.4h5.2c1.2 0 1.6.5 1.6 1.7v13c-.1.4-.1.9-.1 1.1m0 20.5v10.3c0 1.1.3 1.6 1.3 1.7 2.7.2 5.4.7 8 .6 4.3-.3 6.6-2.5 7-6.8.3-4.2.3-8.6 0-12.8-.2-2.9-1.8-5.2-4.8-6-3.7-1.1-7.3-.7-10.7 1.1-.4.2-.8 1-.8 1.5z"/><path d="M327.6 16.8c3.5-1.1 6.9-1.4 10.4-1.2 8.6.5 14.5 6 15 14.6.4 7.5.2 15 .3 22.5v3.1c0 1-.4 1.5-1.5 1.5-2-.1-3.9-.1-5.9 0-1.4 0-1.8-.6-1.8-1.8V34c0-1.2-.1-2.5-.3-3.7-.6-3.8-2.6-5.8-6.4-6.3-2.9-.4-5.7-.1-8.6.7-1 .3-1.3.8-1.3 1.9v28.5c0 2.2-.1 2.3-2.3 2.3h-4.3q-2.6 0-2.6-2.5V3.1c0-1.8.2-2 2-2h5.3c1.6 0 1.9.3 1.9 1.9v12.3c.1.3.1.8.1 1.5"/><path d="M450.4 32c4.1-4.5 8.1-8.6 11.8-12.9 1.7-2 3.1-2.5 6.1-2.6 1.4-.1 3.5-.1 5.2-.1 1.8.1 1 1.3.7 1.7-4.4 4.7-8.8 9.4-13.2 14-.5.5-1 1.1-1.6 1.7l4.8 6.3c3.8 5 7.7 9.9 11.5 14.9.7.9 1.2 2-1 2.1h-7c-1.1 0-1.8-.4-2.5-1.2-3.6-4.8-7.3-9.6-11-14.4-.3-.4-.6-.8-1-1.2-.8.8-1.6 1.5-2.3 2.4-.3.3-.4.9-.4 1.4v11.2c0 1.7-.2 1.9-1.9 2h-5.3c-1.8 0-1.9-.1-1.9-2V3.2c0-2.1.1-2.2 2.2-2.2h5c1.7 0 1.9.3 1.9 2v27.2c-.1.4-.1.9-.1 1.8"/><path d="M271.8 16.6c.7-7.5 5.9-13.4 13.2-15.4 8.6-2.4 16.6-1 24.2 3.7 1.4.9 1.5 1.2.5 2.7s-2 2.9-3 4.4c-.6.9-1.3 1.1-2.2.5-2.9-1.9-6.2-3-9.7-3.3-3.9-.3-7.6.2-10.7 3-2.2 2-3.1 4.6-3.1 7.5-.1 6.3-.1 12.7 0 19 .1 6.1 4.2 10.2 10.4 10.6 5.1.3 9.9-.8 14.2-3.6 1.5-1 1.6-1 2.6.6 1 1.5 2.1 3 3.1 4.5.5.7.6 1.4-.2 2-7.6 6.3-22.3 7.4-30.8 2.4-5.8-3.4-8.4-8.7-8.8-15.3-.2-3.5 0-7.1 0-10.6.1-.2-.1-8.6.3-12.7"/><path d="M238.4 40.7c-.5 5.4 1.6 8.7 6.1 9.2 2.3.2 4.7.1 6.9-.4 2.1-.5 4-1.6 5.9-2.7 1.1-.6 1.7-.6 2.4.5.9 1.3 1.8 2.5 2.7 3.7.5.7.5 1.3-.3 1.9-7.3 5.4-15.3 6.9-23.8 3.8-5.5-2-8.8-6.2-9.1-12.2-.3-5-.3-10 0-14.9.6-7.3 5.3-12.2 12.5-13.5 4.5-.8 8.9-.7 13.1 1.3 5.5 2.6 8.1 7 8.4 12.9.2 2.9 0 5.9.1 8.8 0 1.4-.5 1.8-1.8 1.8H240c-.4-.2-1-.2-1.6-.2m16.1-7.2c.2-3.6 0-7.1-3.5-8.9-3.3-1.7-6.8-1.7-9.9.5-2.8 2-2.7 5.2-2.7 8.4z"/><path d="M370.8 40.7c-.8 6.2 2.7 9.8 8.7 9.4 3.7-.2 7-1.2 10-3.3 1.1-.7 1.8-.6 2.5.5.8 1.2 1.8 2.4 2.7 3.6.5.7.6 1.3-.2 1.9-7.4 5.5-15.5 7-24.2 3.7-5.4-2.1-8.5-6.3-8.8-12.1-.2-4.9-.3-9.9 0-14.8.6-7.3 5.2-12.2 12.4-13.6 4.5-.9 8.9-.7 13.1 1.2 5.5 2.5 8.1 7 8.5 12.9.2 2.9.1 5.9.1 8.8 0 1.6-.2 1.8-1.9 1.8zm15.9-7.2c.6-4-.5-7.2-3.1-8.7-3.2-1.8-6.6-1.9-9.8.1s-3.1 5.3-3.1 8.6z"/><path d="M144.7 33c.1-2.3.1-4.4-.9-6.3-1-2-3-2.8-5.1-2.9-4-.3-7.8.2-11.3 2.1-1.2.6-1.9.5-2.6-.7-.7-1.3-1.6-2.5-2.4-3.7-.7-1-.6-1.6.5-2.2 4.8-2.9 10.1-3.8 15.7-3.6 3.7.1 7.2.9 10.2 3.2 3.3 2.5 4.8 6 5 10 .3 5.5.2 11 .2 16.5v8.7c0 1-.3 1.8-1.4 2.1-7.2 1.9-14.4 3-21.8 1.5-4-.8-7.6-2.5-9.7-6.4-3.9-7.3-.2-15.4 7.8-17.6 4.5-1.3 9-1.2 13.6-.7.6-.1 1.3-.1 2.2 0m0 7.4c-1.1-.1-2-.3-2.9-.4-3.2-.2-6.5-.6-9.7.4-2.1.7-3.2 2.2-3.3 4.2-.1 2.2.8 3.7 2.9 4.6 4.3 1.8 8.6.9 12.9.1.1-3 .1-5.9.1-8.9"/><path d="M96.6 9.7H81.1c-1 0-1.6-.4-1.6-1.5V2.3c0-1 .5-1.4 1.5-1.4h39.8c2.2 0 2.3.1 2.3 2.3v4.5c0 1.8-.2 2-2 2H106v45.1q0 2.4-2.4 2.4H98c-1 0-1.5-.4-1.4-1.4z"/><path d="M403.2 27.5c1.3-6.4 5.7-10.1 11.9-11.4 6.1-1.3 12-.4 17.5 2.8 1.5.9 1.5 1.2.6 2.6-.6 1-1.3 1.9-1.9 2.9-1.3 2.1-1.3 2-3.5 1-2.5-1.2-5.1-1.8-7.9-1.7-5.2.2-7.8 2.9-7.9 8 0 3.5-.1 7.1 0 10.6.1 4.6 2.7 7.2 7.2 7.5 3.6.3 6.8-.6 9.8-2.5 1.2-.8 2-.6 2.7.6.8 1.3 1.8 2.6 2.7 3.9.6.8.5 1.4-.4 2-7.1 4.7-14.7 5.6-22.6 2.4-5.7-2.3-8.3-7-8.7-13-.1-2.2 0-4.5 0-6.7 0-.8-.1-6 .5-9"/><path d="M206.4 23.7V2.8c0-1.6.2-1.9 1.8-1.9h5.4c1.6 0 1.9.3 1.9 1.9v16.5c0 8.1 0 16.3.1 24.4 0 .7.1 1.5.3 2.2.6 2.7 1.9 3.8 4.7 3.9 1 0 2 0 2.9-.1.9 0 1.4.4 1.4 1.3 0 1.9.1 3.7-.1 5.6 0 .5-.6 1.3-1 1.3-3.1.3-6.3.6-9.4-.6-4.8-1.8-6.9-5.7-7.7-10.4-.3-1.9-.3-3.8-.3-5.7z"/></g></svg>