<svg xmlns="http://www.w3.org/2000/svg" width="512" height="512" data-name="レイヤー_1" viewBox="0 0 512 512"><path fill="#799abb" d="M0 0h512v512H0z"/><path fill="#fff" d="M232.288 209.445c.173-.312.571-.477.865-.753.45-.432 1.073-.814 1.385-1.367.605-.986 1.333-1.246 2.458-1.108 1.022.138 2.216.277 3.116-.138.986-.468 1.991-.554 2.96-.935.761-.242 1.437-.173 2.198-.017.952.173 1.991.407 2.909.182 1.281-.303 2.458.129 3.687.008.674-.035 1.402.139 1.991-.078 1.973-.701 3.963-.805 6.024-.718 1.073.043 2.025-.182 3.029-.623.986-.416 2.06-1.099 3.219-.45.105.06.312.121.416.043.503-.156.97-.51 1.454-.597.536-.069.986.597 1.679.329.675-.26 1.471-.294 2.164-.554 1.228-.502 2.492-.45 3.721-.173.467.078.986.329 1.298.191 1.384-.675 2.873-.035 4.223-.65 1.333.347 2.666-.45 3.964-.147 1.42.363 2.787-.009 4.206-.06.71-.009 1.471-.425 2.181-.39 1.142.07 2.06-.302 2.908-.934 1.108.519 2.147.597 3.272.147.848-.321 1.835-.087 2.544-.814.156-.182.589-.216.848-.174.9.234 1.765.096 2.666 0 .796-.06 1.662.096 2.475-.113.814-.19 1.713.39 2.406-.311 1.748-.026 3.393-.675 5.158-.467.502.035 1.039-.113 1.558-.174.9-.086 1.782-.329 2.665-.207.831.104 1.558.087 2.355-.277.814-.311 1.782-.519 2.614-.449.744.06 1.419.26 2.198.008.693-.182 1.437-.095 2.181-.164 1.073-.078 2.112-.805 3.254-.156.208.078.606-.121.848-.242.468-.225.917-.519 1.281-.71.9.078 1.731.191 2.544.156.83 0 1.627-.243 2.441-.294 1.072-.061 2.146-.693 3.184.233.208.165.728.061 1.091-.035.571-.147 1.125-.355 1.696-.58 1.229-.467 2.458-.692 3.756-.58.606.026 1.212.026 1.835-.027.416-.043.953-.069 1.282-.285.71-.545 1.523-.58 2.372-.545.778.017 1.523-.329 2.423-.13 1.609.321 3.289.26 4.882-.372.485-.164 1.108-.449 1.523-.294.918.39 1.818.121 2.631-.095 1.991-.554 4.068-.147 6.007-.822 1.626.13 3.098-.381 4.621-.892.468-.182 1.022-.302 1.489-.199 3.323.658 6.595-.252 9.883-.363.121-.018.26-.13.416-.174 1.073-.269 2.164-.571 3.272-.77.64-.129 1.419-.32 1.973-.095 1.402.554 2.683.182 3.947-.277.762-.26 1.402-.355 2.181-.078.537.191 1.229.277 1.731.061.953-.338 1.921-.269 2.891-.294 1.004-.027 2.043.19 2.926-.087 1.991-.675 4.016-.225 6.041-.71 2.06-.493 4.259-.727 6.456-.554.519.061 1.039-.191 1.541-.277 1.073-.156 2.111-.554 3.271-.191.675.191 1.471-.069 2.233-.13.658-.069 1.315-.182 2.007-.233.519-.069 1.091.104 1.558-.105 1.16-.484 2.372-.311 3.565-.363.519-.008 1.073.069 1.593-.043a27 27 0 0 1 7.789-.856c.347 0 .728-.113 1.091-.165.641-.078 1.333-.199 2.008-.251.518-.052 1.09.087 1.557-.087 1.939-.727 4.086 0 5.989-.805 2.372.251 4.5-1.151 6.89-.943.051 0 .138 0 .207-.035 1.384-.762 2.77-1.498 4.172-2.208 2.752-2.942 3.151-4.769.952-7.694-.502-.728-1.281-1.282-1.991-1.792-.848-.632-1.835-1.056-2.631-1.722-.952-.883-2.163-.45-3.202-.77-2.303-.744-4.5-1.082-6.612-1.567-1.731-.372-3.462-.796-5.21-1.099a41 41 0 0 0-3.444-.494c-2.043-.104-4.051-.605-6.128-.432-.138.035-.277 0-.415-.06-.883-.468-1.87-.321-2.839-.321h-4.12c-.536 0-1.09-.086-1.627-.164-.692-.078-1.35-.243-2.007-.251a112 112 0 0 0-5.401 0c-1.765.017-3.549-.208-5.314-.035-.416.043-.883.052-1.229-.104-.848-.372-1.765-.26-2.666-.277-1.835-.052-3.721.104-5.521-.174-1.523-.224-3.029-.346-4.518-.224-2.873.242-5.712-.666-8.585-.165a.8.8 0 0 1-.191-.043c-.9-.069-1.765-.216-2.649-.225-2.06-.051-4.137.009-6.214-.035-2.025-.035-4.086.243-6.145.035-.416-.051-.83-.051-1.212.121-.866.363-1.765.277-2.648.277h-14.263c-.606 0-1.264-.148-1.835.086-1.004.398-2.043.294-3.047.347-.814.051-1.662.38-2.423.207-.9-.191-1.765-.191-2.649-.207-.484-.018-1.021-.121-1.437.051-1.142.45-2.302.294-3.479.364-.399 0-.814.017-1.212.069-1.869.199-3.704.779-5.625.346-.26-.035-.554 0-.814.027-1.073.182-2.13.441-3.185.649-.277.052-.588.138-.814.035-1.42-.71-2.648.043-3.946.416-.589.156-1.073.45-1.765.398-1.351-.087-2.7.052-4.051.138-.744.078-1.471.347-2.198.416-.675.069-1.333.018-1.939.537-.674.536-1.419-.416-2.146-.035-.33.165-.641.26-.97.381-1.437.45-2.926.641-4.431.814-.952.069-1.921-.156-2.7.675-.225.173-.675.173-1.004.138-1.384-.113-2.735.165-4.085.467-1.645.355-3.393.554-4.934 1.282-1.523.727-2.995 1.306-4.673 1.384-.675.052-1.333.174-2.008.199-.709.026-1.367.078-1.991.398-.485.251-1.073.312-1.593.51-.883.329-1.817.416-2.683.97-.727.494-1.644.692-2.544.641a3.8 3.8 0 0 0-1.437.129c-1.523.476-2.995 1.013-4.484 1.515-.519.156-1.056.243-1.575.39-.329.069-.744.129-.97.302-.519.476-1.108.528-1.731.528-.641 0-1.16.095-1.662.597-.416.381-1.16.571-1.749.588-1.021.087-2.06.164-2.873.9-.865.848-2.025.035-2.908.692-.052.051-.121.069-.191.095-.83.303-1.679.563-2.492.917-.33.105-.624.26-.866.477-1.09.934-2.96 2.198-3.082 2.216-1.471.355-2.285.848-3.635 1.506-.588.303-1.298 1.108-1.974 1.246-.346.104-.779.104-.952.329-.779 1.126-1.904 1.212-3.081 1.359-.416.035-.814.165-1.178.321-.658.346-1.263.874-1.991 1.073-.9.285-1.437 1.212-2.267 1.35-1.022.165-1.783.761-2.562 1.264-1.696 1.099-3.496 1.973-4.968 3.444-1.056 1.056-2.32 1.991-3.514 2.874-.848.596-1.836.986-2.666 1.609-.623.459-1.229.563-1.921.563-.779 0-29.167 1.999-29.946 2.207-.9.243-1.783.294-2.683.312-.624 0-1.264-.139-1.801.06-1.731.572-3.444.277-5.176.355-.744.052-1.523-.051-2.232.165-.9.26-1.765.242-2.666.311-.623 0-1.212.061-1.818.113-.814.07-1.609.225-2.441.243-1.506.051-3.029 0-4.517 0-.606.043-1.195.113-1.818.191-.883.086-1.765.225-2.666.294-.658.043-1.384-.104-2.025.051-1.869.476-3.739.294-5.626.347-.432 0-.934-.095-1.333.052-1.765.58-3.6.277-5.383.449-1.938.191-3.877.441-5.833.433-.156 0-.294.069-.432.104-.814.069-1.645.225-2.458.242-1.507.052-3.012 0-4.536.018-.519 0-1.09-.052-1.557.129-1.091.39-2.216.286-3.359.303-1.35.052-2.752-.113-4.05.147-1.212.234-2.372.251-3.583.285-1.138.018-2.315-.155-3.388.121-1.351.355-2.666.294-4.025.312-1.809.043-3.609 0-5.427.026-.597.017-1.195.043-1.8.113-.883.078-1.783.242-2.679.294-1.069.06-2.112-.018-3.167.017-1.718.07-3.449-.277-5.146.381-.311.104-.736-.078-1.112-.095a14 14 0 0 0-1.077-.018c-.662.035-1.346.165-2.017.165-5.808.017-11.619.017-17.427.017-.458 0-.943.061-1.354-.069-1.77-.597-3.579-.329-5.375-.381-.674-.017-1.38.018-2.03-.086-2.142-.381-4.25-.857-6.396-1.229-2.116-.303-4.028-1.142-5.859-2.198-1.372-.771-2.232-1.999-2.531-3.549-.16-.978-.091-1.991.666-2.735.635-.615 1.398-1.108 2.177-1.567 1.025-.614 2.12-1.099 3.016-1.93.476-.449 1.112-.778 1.753-1.012a28.5 28.5 0 0 0 5.652-2.675c.627-.363 1.371-.588 2.072-.865.554-.225 1.186-.329 1.688-.658 2.432-1.654 5.625-1.645 7.91-3.583.057-.052.147-.052.217-.087a829 829 0 0 1 5.742-1.852c1.134-.416 2.255-.83 3.367-1.229 1.272-.467 2.514-.969 3.786-1.453 1.679-.615 3.385-1.177 4.999-1.991.862-.45 1.839-.658 2.765-.97 1.138-.363 2.294-.675 3.41-1.108.913-.329 1.774-.797 2.692-1.099 1.515-.459 3.029-.857 4.553-1.247.952-.277 1.809-.744 2.7-1.081.856-.347 1.938-.078 2.89-.338 2.311-.58 4.605-1.307 6.89-2.017 2.349-.727 4.669-1.506 7.006-2.267.432-.156.848-.338 1.298-.381 2.7-.467 5.487-.64 8.066-1.748.191-.087.433-.027.658-.07 1.246-.207 2.492-.415 3.756-.649 1.956-.355 3.808-1.376 5.92-1.16.277.027.554-.147.848-.242.796-.251 1.575-.528 2.354-.736 1.575-.398 3.237-.606 4.708-1.42.312-.173.744-.173 1.108-.173 1.61.069 3.168-.104 4.656-.675.329-.155.728-.121 1.108-.191 1.316-.216 2.631-.476 3.981-.658 2.96-.372 5.799-1.566 8.846-1.54.225.026.45-.078.658-.138 2.458-.779 4.951-1.169 7.513-1.117.449 0 .883-.165 1.35-.191 3.307-.458 6.543-1.687 9.954-1.566 2.18-.589 4.396-.744 6.629-1.073 1.991-.303 3.947-.762 5.972-.693.675.035 1.368-.069 2.043-.155.658-.07 1.333-.277 1.991-.26 2.337.069 4.604-.399 6.889-.744 1.905-.312 3.843-.762 5.799-.606 1.126.087 2.355.199 3.393-.069 1.263-.363 2.51-.312 3.773-.363 1.489-.035 3.029.164 4.484-.398.329-.121.744-.027 1.126-.027 2.18 0 4.379-.026 6.56 0 .467 0 .952-.06 1.35.087.953.416 1.921.338 2.891.338 3.012.035 6.041 0 9.053 0h2.198c.45.917 1.108 1.523 1.939 1.636 1.765.242 3.479.978 5.331.407.485-.45.901-1.039 1.489-1.351 1.437-.71 2.043-1.921 2.388-3.34.26-1.004.503-2.043.641-3.056a3.6 3.6 0 0 0-.138-1.549c-.814-2.336-1.921-4.431-4.743-4.742-.225-.052-.467-.13-.674-.191-3.445-.779-6.872-1.714-10.455-.97-.294.043-.606 0-.917.018-1.939.121-3.913.121-5.799.502-1.351.251-2.684.294-4.051.381-1.315.069-2.666.441-3.981.346-2.232-.129-4.362.433-6.509.615-2.302.173-4.604.666-6.907.736-.311.035-.605.086-.917.121-1.991.242-3.999.493-6.006.727-1.783.191-3.566.363-5.366.58-1.696.216-3.409.494-5.107.736-1.402.199-2.804.381-4.206.588-1.782.243-3.565.468-5.331.71-1.714.243-3.41.441-5.107.71-2.129.346-4.275.71-6.422 1.073-2.129.294-4.259.605-6.422.97-.432.06-.848.242-1.281.311-2.441.381-4.865.797-7.236 1.498-.415.113-.865.268-1.297.268-1.732.069-3.376.503-5.072.866-3.081.605-6.145 1.195-9.209 1.835a236 236 0 0 0-7.875 1.662c-3.238.736-6.405 1.54-9.625 2.268-3.791.892-7.617 1.696-11.407 2.536-1.593.407-3.167.908-4.76 1.307-5.941 1.471-11.922 2.864-17.785 4.613-1.723.519-3.445 1.047-5.159 1.497-2.255.537-4.505 1.039-6.712 1.731-3.349 1.073-6.737 2.061-10.113 3.056-.216.095-.459.035-.671.129-1.86.572-3.778 1.039-5.556 1.783-1.346.528-2.666 1.012-4.09 1.194-2.181.26-4.085 1.385-6.167 1.905-.082.017-.16.069-.207.087-1.255 1.064-2.834 1.341-4.289 1.956-2.882 1.194-5.786 2.466-8.559 3.947-1.645.883-3.151 1.973-4.712 2.977-2.35 1.445-4.449 3.047-6.028 5.288-.917 1.272-1.429 2.588-1.545 4.111-.061.562-.213 1.159-.286 1.731-.056.302-.168.605-.09.883.29 1.004.619 2.007.995 2.96.324.744.791 1.453 1.06 2.216.662 1.731 1.537 3.245 2.942 4.621 2.341 2.233 5.15 3.479 8.115 4.553 1.623.623 3.284.952 4.951 1.42 3.034.814 6.024 1.782 9.235 1.662.302 0 .61.078.887.06 1.203-.06 2.341.338 3.501.39 1.289.035 2.575 0 3.838 0h2.731c.805.017 1.605 0 2.402.432.441.242 1.212.216 1.722.017 1.744-.649 3.493-.674 5.232-.035 1.034.416 2.155.476 3.081.035.887-.415 1.74-.432 2.627-.449.602 0 1.246.121 1.804-.052 1.039-.32 2.008-.485 3.051 0 .308.138.744.069 1.104 0 1.527-.242 3.076-.606 4.621-.814 1.061-.121 2.169-.727 3.268-.052.164.105.459.027.683.027 1.801 0 3.618.035 5.427-.027.65-.017 1.342-.138 1.93-.441.866-.407 1.723-.467 2.648-.337.286.035.581.138.857.112 1.498-.035 2.999-.242 4.505-.164 2.804.207 5.522-.545 8.309-.467.208 0 .433-.078.658-.139 1.974-.415 3.964-.814 5.989-.727.537.009 1.108.104 1.558-.087 1.004-.398 1.905-.311 2.856.035.398.121.899.035 1.333-.035 1.453-.329 2.925-.649 4.362-1.039.969-.242 1.938-.294 2.89 0 .519.208.987.208 1.523 0a6.7 6.7 0 0 1 1.315-.173c2.199-.147 4.311-.675 6.509-.467.294 0 .641-.069.901-.225 1.298-.572 2.821-.156 4.119-.848.156-.087.468-.035.641.069.848.416 1.679.26 2.561.294 1.298.018 2.545-.182 3.791-.216 1.644-.043 3.271-.425 4.916-.632 1.09-.129 2.232-.398 3.323-.303 1.194.113 2.388.078 3.6-.043 1.783-.173 3.601-.294 5.383-.449 2.874-.191 5.73-.347 8.586-.563a6.4 6.4 0 0 0 1.108-.165c1.609-.398 3.185-.952 4.898-.658.416.069.935 0 1.333-.191 1.142-.485 2.354-.338 3.566-.372.969-.017 1.956.113 2.804-.58.155-.156.571-.121.83-.069 1.8.338 3.601.416 5.297-.363.086-.052.277.06.398.086.052.13.156.347.104.39a342 342 0 0 1-4.864 5.548c-1.142 1.272-2.406 2.501-3.479 3.807-1.54 1.921-2.752 4.077-4.518 5.842-.692.666-1.263 1.445-1.835 2.242-1.437 2.085-2.839 4.188-4.275 6.292-.658.917-1.471 1.731-1.991 2.7-1.229 2.31-3.289 4.102-4.258 6.587-.017.069-.087.121-.121.155a394 394 0 0 1-3.219 4.856c-.537.822-1.316 1.532-1.593 2.432-.363 1.177-1.142 2.077-1.696 3.133-.519 1.056-.728 2.294-1.731 3.098-.139 1.333-1.42 2.043-1.905 3.203a65 65 0 0 1-2.666 5.452c-1.298 2.475-2.336 5.123-3.635 7.617-1.921 3.643-3.047 7.633-4.985 11.234-.26.518-.277 1.177-.623 1.609-.312.416-.519.692-.364 1.195.243.952-.086 1.869-.658 2.475-.761.787-1.246 1.662-1.627 2.63a35 35 0 0 0-.952 2.926c-.173.554-.589 1.039-.294 1.714.104.207-.069.554-.173.822-.381.961-1.108 1.879-1.142 2.865-.121 2.25-1.766 4.154-1.523 6.439.017.139-.069.295-.156.433-.865 1.324-.986 2.926-1.471 4.397-.156.485-.225 1.047-.138 1.531.156.719.051 1.29-.398 1.878-.589.728-.762 1.576-.831 2.51-.104 1.541-.398 3.082-.641 4.622-.19 1.108-.658 2.199-.519 3.272.121 1.375-.086 2.63-.449 3.894-.26 1.004-.71 1.974-.848 2.978-.225 1.765-.277 3.574-.416 5.314-.138 1.913-.588 3.704-.97 5.625-.814.018-1.471.052-2.147.087-.519 0-1.108-.087-1.575.069-1.021.441-2.077.432-3.098.347-2.199-.174-4.328.389-6.491.502-1.42.069-2.805.588-4.189.935-2.112.588-4.275.83-6.491.588-1.836-.208-3.652-.277-5.574.113-2.7.545-5.453.805-8.097 1.644-.355.13-.744.13-1.099.199-1.584.416-3.238.528-4.769 1.177-.909.363-1.835.71-2.77.917-3.454.814-6.513 2.285-9.088 4.709-.441.432-.8.874-1.103 1.402-.905 1.575-1.537 3.202-1.671 5.115.515 1.064.835 2.259 1.588 3.332.29.398.351.97.476 1.471.191.831.533 1.575 1.195 2.129 1.527 1.195 2.986 2.51 4.933 3.029 1.367.381 2.787.606 4.12 1.126 1.437.536 2.908.71 4.422.641 2.094-.156 4.227.277 6.305-.286.243-.113.572.13.866.13 2.267.017 4.57.338 6.767 0 2.147-.347 4.258-.866 6.457-.797.294.018.588-.086.883-.113 2.232-.242 4.466-.467 6.698-.736.797-.086 1.645-.173 2.424-.432 1.003-.363 2.042-.476 3.081-.45 1.454.052 2.856-.268 4.172-.805.468-.207.987-.424 1.489-.441 1.506-.078 2.995-.095 4.484-.45 1.956-.416 3.963-.571 5.937-1.099.416-.13.883-.251 1.333-.251 1.869 0 3.687-.494 5.47-.987.449-.121.883-.329 1.298-.311 1.316.129 2.597-.113 3.757-.554 1.228-.467 2.527-.338 3.756-.58 2.423-.476 4.795-1.255 7.305-1.126.866.026 1.765-.372 2.614-.666.277-.069.468-.467.693-.744-1.524-1.081-3.098-1.359-4.812-1.263-1.212.086-2.423 0-3.601.017-1.437.035-2.856.069-4.275.294-1.384.277-2.821.381-4.206.572-.9.121-1.783.069-2.666.363a12.5 12.5 0 0 1-3.081.502c-1.731.096-3.393.554-5.107.744-1.696.207-3.358.779-5.107.614-.588-.026-1.194.165-1.782.234-1.316.216-2.649.467-3.982.623-1.713.208-3.444.277-5.14.519-2.199.381-4.397.857-6.647.822-.399 0-.744.078-1.126.113a78 78 0 0 1-2.441.32c-.536.026-1.09-.095-1.575.043-1.489.528-2.978.312-4.484.381-.899.017-1.869-.121-2.7.138-1.108.311-2.232.311-3.34.311-2.268.018-4.553-.069-6.798.018-1.818.069-3.618-.052-5.357-.545-2.086-.554-4.224-.909-6.05-2.285-.822-.632-1.489-1.229-1.696-2.346.588-1.195 1.644-1.549 2.605-2.147 1.921-1.142 4.025-1.662 6.093-2.25 1.947-.554 3.939-.9 5.925-1.29 1.991-.355 3.981-.649 5.989-.892.899-.113 1.782-.121 2.683-.355 1.246-.32 2.423-.06 3.151 1.117.571.969 1.194 1.938 1.506 2.977.692 2.268 2.597 2.717 4.5 3.167.347.061.9-.156 1.177-.45 1.506-1.315 3.289-1.8 5.228-1.713 2.63.156 5.227-.727 7.858-.45.156 0 .294-.035.432-.069 2.354-.485 4.709-.883 7.149-.814.294.017.606.069.884-.035 1.61-.554 3.271-.32 4.933-.398.45 0 .917.051 1.333-.035 2.51-.537 5.037-.884 7.599-.822.381 0 .744-.061 1.126-.13.883-.095 1.782-.225 2.665-.302.606-.043 1.247.095 1.801-.061 2.198-.675 4.517-.051 6.716-.77 3.271-.147 6.578-.285 9.884-.432.761-.043 1.558-.441 2.199-.251 1.592.51 3.15.207 4.708.173 2.181 0 4.344-.312 6.509-.606.97-.113 1.679-.727 1.921-1.679.207-.831-.398-1.385-1.004-1.852-.294-.234-.641-.407-.935-.614-.848-.511-1.679-1.056-2.51-1.541-.571-.285-.986-.718-1.177-1.29-.554-1.644-1.696-2.942-2.7-4.275-.242-.338-.674-.736-1.039-.779-1.437-.121-2.804-.883-4.172-.865-2.405.035-4.76-.658-7.166-.658a738 738 0 0 0-13.796 0c-.519 0-1.108-.051-1.558.174-1.402.632-2.735.38-4.102.225-.398-.866-.225-1.576-.034-2.294.329-1.463.71-2.909 1.022-4.389.207-1.003.674-1.999.086-3.028-.138-.243 0-.597.018-.884.138-1.185.138-2.388.485-3.513.346-1.16.727-2.233.38-3.428-.017-.113.139-.26.174-.407.623-2.38.709-4.829 1.09-7.235.087-.649.138-1.324.416-1.956.277-.527.363-1.116.467-1.705.381-1.731.572-3.531 1.091-5.209 1.003-3.134 1.523-6.353 2.025-9.572.225-1.454.536-2.926.9-4.345.191-.814.503-1.557.433-2.414-.018-.372.051-.736.138-1.117.347-1.29.744-2.579 1.126-3.843.744-2.406 1.765-4.717 2.198-7.235.035-.269.087-.606.277-.814.503-.563.589-1.212.572-1.878 0-.285-.018-.649.121-.883 1.194-1.653 1.558-3.679 2.492-5.427.606-1.204 1.177-2.406 1.402-3.774.052-.329.208-.727.468-.986 1.228-1.264 1.765-2.926 2.458-4.449.796-1.765 1.558-3.54 2.354-5.279.658-1.411 1.471-2.717 2.319-4.059 1.073-1.687 2.32-3.28 3.168-5.132 1.004-2.181 2.371-4.163 3.791-6.075.45-.588.814-1.247.814-2.043-.035-1.195 1.073-1.93 1.177-3.029.658-.191 1.246-.363 1.835-.537.399-1.212 1.523-2.06 1.576-3.435 0-.183.242-.459.416-.485 1.263-.321 1.765-1.376 2.233-2.363.432-.883.744-1.696 1.593-2.337.519-.39.658-1.298.917-1.991.294-.848 1.471-.666 1.731-1.627.121-.467.537-.883.848-1.298 1.004-1.186 2.181-2.268 3.082-3.557.796-1.099 1.783-1.999 2.648-3.02 1.108-1.298 2.562-2.285 3.445-3.782M173.21 350.926c-2.544.191-5.09.312-7.634.441-.086 0-.155-.008-.225 0-1.194.182-2.371.363-3.565.485-1.125.061-2.232-.06-3.358.277-.761.216-1.627.086-2.441.113-1.16.051-2.25-.027-3.376.346-.588.208-1.315.009-1.991-.069-.155-.035-.363-.303-.38-.485-.052-.164.086-.432.225-.536.329-.174.692-.338 1.038-.381 1.282-.104 2.562.138 3.774-.45 1.645.45 3.254-.164 4.882-.069 1.645.069 3.307.225 4.916-.346.347-.121.744-.052 1.126-.052 2.111 0 4.223-.009 6.335 0 .416.035.848.104 1.696.191-.572.311-.779.536-1.021.536m72.873-151.22c-.069 0-.173-.207-.242-.346 1.177-2.181 5.643-4.484 6.785-4.968 3.427-1.471 6.872-2.908 10.265-4.448 2.873-1.307 11.857-4.882 15.925-6.076 2.597-.788 5.279-1.419 7.911-2.043 1.662-.415 3.34-.683 5.002-1.09.986-.242 1.956-.588 2.942-.892 1.662-.467 3.323-.908 4.951-1.411.208-.035.399-.138.588-.138 2.164-.035 4.155-.9 6.249-1.195 1.367-.155 2.735-.311 4.016-.83.243-.095.537-.121.831-.087 1.991.208 3.947-.294 5.92-.467.467-.043.917-.225 1.367-.398a9.5 9.5 0 0 1 3.998-.814c1.091.017 2.216.121 3.254-.347.225-.104.537-.078.797-.051 1.696.069 3.271-.45 4.881-.71 1.282-.208 2.562-.381 3.843-.588.468-.069.935-.174 1.42-.252.467-.06.952-.19 1.402-.129 1.644.26 3.22.069 4.812-.338.398-.129.814-.095 1.228-.095 1.091-.052 2.147-.035 3.272-.312 1.09-.303 2.285-.095 3.445-.121s2.336.139 3.462-.311c.432-.225.952-.113 1.437-.113h5.141c1.177-.018 2.354.129 3.479-.329.433-.156.97-.078 1.454-.078h6.387c.952 0 1.939 0 2.891-.06.848-.061 1.731-.321 2.561-.303 1.697.043 3.376-.416 5.09-.087.519.096 1.073.018 1.609.018h25.861c1.004.017 2.025-.105 3.029.355.346.165.814.078 1.246.078 1.765 0 3.565.017 5.366 0 .658-.035 1.333-.26 2.007-.294 1.177-.06 2.355-.243 3.479 0 .883.199 1.749.26 2.648.294.537.017 1.126-.06 1.627.078.623.147 1.142.182 1.765.009.589-.147 1.229.017 1.852.077.606.061 1.212.217 1.818.243 1.506.078 3.029-.147 4.484.389.26.087.554.061.848.035 2.995-.138 5.85.572 8.707 1.402 1.384.416 2.786.831 4.154 1.264.208.061.45.104.554.277.953 1.186 1.921 2.414 1.991 4.05-1.438.727-4.207 1.523-5.522 1.645-1.281.121-2.544.346-3.843.536-1.384.242-2.821.425-4.206.744-1.454.372-3.012.207-4.449.744-.051.035-.12.043-.207.043-2.319-.009-4.587.484-6.889.874-.519.087-1.091 0-1.645 0-.83.017-1.662-.13-2.441.329-.104.06-.26.078-.398.087-1.973.138-3.947.268-5.937.415-.658.087-1.316.208-2.008.303-.485.052-.952.096-1.437.113-.761.052-1.506-.06-2.216.312-.104.069-.277.121-.398.095-1.939-.216-3.808.467-5.73.425-1.662-.035-3.237.458-4.882.64-.588.035-1.212.208-1.818.208a31.3 31.3 0 0 0-7.547.761c-.848.225-1.765.069-2.648.078-.97.043-1.921-.078-2.856.329-.363.147-.814.06-1.229.078-.761.104-1.506.225-2.232.294-.623.069-1.229.113-1.852.113-1.229.043-2.475-.113-3.67.372-.363.156-.814.078-1.246.051-2.388-.051-4.778.191-7.114.797-.052.009-.121.026-.208.026-1.973.165-3.947.303-5.937.407-1.021.069-2.077-.069-3.046.347-.295.138-.693.086-1.039.104-3.134.138-6.284.363-9.365 1.142-.311.078-.674.052-1.021.069-.814.113-1.61.207-2.441.294-.467.06-.952.078-1.437.104-1.367.018-2.753-.173-4.068.372-.191.096-.432.069-.623.052-2.268-.199-4.449.493-6.716.545-2.424.052-4.882.554-7.322.744-1.714.095-3.376.588-5.072.71-1.506.155-3.046.086-4.552.069-2.13-.087-4.206.346-6.284.71a3.3 3.3 0 0 1-.814.113c-.883.035-1.749.06-2.666.337-.675.243-1.489.087-2.233.087-.953.035-1.921-.104-2.856.32-.225.113-.537.096-.797.096-1.159.017-2.354-.096-3.479.416-2.061-.234-4.068.38-6.111.458-2.51.078-5.02.234-7.495.788-.329.069-.71.017-1.039.017-1.298.052-2.596-.113-3.86.399-1.61-.234-3.116.415-4.691.467-.952.052-1.87.311-2.822.416-.97.051-1.921 0-2.856.32-.433.182-.953.078-1.42.087-1.454.06-2.873-.147-4.293.372-.605.224-1.368.035-2.06.077-.606 0-1.264-.06-1.835.096-.572.164-1.004.164-1.558-.096-.831-.424-2.354.26-4.484.806-.38.069-.796.069-1.212.069-1.454.051-2.873-.069-4.31.363-.744.234-2.544-.883-3.376-.935"/></svg>